<svg width="320" height="568" viewBox="0 0 320 568" fill="none" xmlns="http://www.w3.org/2000/svg">
<ellipse rx="113.423" ry="10.0975" transform="matrix(1.00067 0.000163692 0.000164097 0.999332 160 328.453)" fill="url(#paint0_radial_105_588)"/>
<path d="M257.624 312.604C260.329 311.998 262.969 311.14 265.657 310.464C267.644 309.965 270.314 309.875 271.142 311.749C271.653 312.907 271.127 314.251 270.493 315.345C267.643 320.269 262.39 323.725 256.737 324.398C253.278 324.808 249.593 324.267 246.445 325.758C245.55 326.182 244.71 326.767 243.738 326.956C241.932 327.309 240.184 326.229 238.704 325.137C237.112 323.961 235.857 320.819 234.382 319.498C232.316 317.645 229.313 316.547 230.883 313.55C232.362 310.728 234.292 313.013 236.779 313.551C243.264 314.957 251.129 314.058 257.624 312.604Z" fill="#C5C8CC"/>
<g filter="url(#filter0_ddddii_105_588)">
<path d="M118.552 205.35C118.552 205.35 124.392 221.182 130.766 227.381C130.766 227.381 138.649 229.456 143.285 222.751C143.285 222.751 142.006 210.459 135.931 198.007C135.931 198.007 125.791 197.528 118.552 205.35Z" fill="url(#paint1_linear_105_588)"/>
</g>
<path d="M139.92 220.899C138.345 214.159 136.08 207.581 133.172 201.299C134.01 200.996 134.643 200.791 135.533 200.868C138.376 207.161 139.989 213.995 139.92 220.899Z" fill="white"/>
<g filter="url(#filter1_ddddii_105_588)">
<path d="M140.849 218.278C142.94 217.424 144.433 215.416 144.986 213.229C145.541 211.042 145.237 208.703 144.483 206.577C143.877 204.867 142.948 203.216 141.514 202.102C140.082 200.988 138.082 200.494 136.395 201.166C136.758 202.147 137.062 203.156 137.351 204.158C138.58 203.617 140.213 203.989 141.212 204.888C142.209 205.786 142.767 207.083 143.076 208.389C143.44 209.923 143.477 211.629 142.668 212.983C142.115 213.909 141.223 214.579 140.321 215.173C140.452 216.182 140.558 217.006 140.735 218.01C140.756 218.128 140.833 218.398 140.849 218.278" fill="url(#paint2_linear_105_588)"/>
</g>
<path d="M180.853 213.971L183.891 201.201L168.543 213.971H180.853" fill="#E44256"/>
<g filter="url(#filter2_ddddii_105_588)">
<path d="M180.852 213.972C180.852 213.972 178.935 207.427 180.852 199.765C180.852 199.765 176.695 200.882 168.543 210.619L180.852 213.972Z" fill="url(#paint3_linear_105_588)"/>
</g>
<path d="M70.3774 155.971C68.7483 154.694 66.5998 154.336 64.5487 154.047C62.4885 153.755 60.3765 153.492 58.3408 153.923C56.8968 154.229 55.5416 154.878 54.3076 155.687C50.8689 157.943 48.3203 161.515 47.3092 165.498C47.019 166.64 46.8774 167.942 47.5403 168.916C47.6959 169.146 47.8936 169.352 47.9841 169.614C48.1442 170.074 47.9338 170.573 47.7234 171.014C47.1132 172.289 46.4533 173.619 46.5023 175.032C46.5581 176.641 47.5172 178.057 48.0995 179.558C48.6086 180.872 48.8378 182.284 49.4237 183.565C50.0095 184.845 51.0844 186.037 52.4838 186.205C53.0079 186.267 53.5466 186.183 54.0619 186.298C55.599 186.638 56.2408 188.49 57.5401 189.377C58.6944 190.167 60.2494 190.097 61.5809 189.668C62.9125 189.238 64.1186 188.493 65.4231 187.985C66.75 187.468 68.2048 187.184 69.3414 186.325C70.7003 185.298 71.4085 183.48 71.0999 181.807C70.8985 180.718 70.307 179.687 70.3821 178.584C70.4941 176.948 71.976 175.811 72.9975 174.528C74.2445 172.963 74.8712 171.006 75.4738 169.097C76.3227 166.402 76.7128 163.738 75.0886 161.233C73.9296 159.445 72.0384 157.271 70.3774 155.971" fill="#1C0C0B"/>
<path d="M67.4612 160.245C65.0984 161.91 63.0298 164.317 62.7295 167.189C62.4928 169.454 63.3775 171.7 63.3324 173.977C63.318 174.703 63.2091 175.436 63.3292 176.153C63.5581 177.519 64.5821 178.617 65.6867 179.456C66.323 179.936 67.0216 180.37 67.8033 180.532C69.3524 180.851 70.9639 180.014 71.9694 178.795C72.9766 177.577 73.4833 176.03 73.8942 174.504C75.002 170.399 75.5728 166.151 75.592 161.9C75.5983 159.996 75.0884 158.425 73.0309 158.418C70.9623 158.414 69.1478 159.059 67.4612 160.245" fill="#FFE15C"/>
<path d="M105.818 161.827C106.945 161.293 107.514 159.818 107.039 158.666C106.616 157.642 105.573 157.033 104.585 156.528C99.5448 153.956 94.023 152.167 88.367 152.01C82.7094 151.856 76.9047 153.428 72.5036 156.982C68.1025 160.535 65.2825 166.174 65.7301 171.807C66.0227 175.493 67.6389 178.961 69.6548 182.062C71.6691 185.166 74.0959 187.979 76.254 190.983C78.0349 193.461 79.6799 196.119 82.1035 197.974C85.8539 200.844 91.2941 201.307 95.4762 199.112L105.818 161.827" fill="#1C0C0B"/>
<path d="M116.1 239.944C116.184 238.223 116.34 236.439 117.207 234.949C117.956 233.662 119.181 232.709 120.494 232.002C123.47 230.401 127.667 230.181 129.81 232.791C131.663 235.05 131.222 238.349 130.605 241.204C129.561 246.039 128.239 250.964 125.278 254.931C124.035 256.598 122.115 258.188 120.089 257.709C114.388 256.358 115.91 243.95 116.1 239.944Z" fill="#B21024"/>
<path d="M119.395 227.413C119.701 227.215 120.065 227.128 120.422 227.045C122.064 226.664 123.841 226.294 125.384 226.967C125.907 227.194 126.378 227.534 126.922 227.703C127.358 227.839 127.839 227.864 128.225 228.11C128.845 228.508 129.008 229.328 129.078 230.061C129.23 231.627 129.214 233.211 129.034 234.774C128.941 235.569 128.791 236.394 128.314 237.037C126.338 239.706 121.227 238.635 119.798 235.966C118.901 234.296 117.725 228.495 119.395 227.413" fill="#FFD39F"/>
<path d="M103.231 222.114C106.064 225.867 107.167 230.626 109.431 234.746C112.201 239.786 116.611 243.701 121.048 247.363C122.354 248.44 123.733 249.59 124.287 251.189C124.792 252.645 124.532 254.246 124.182 255.747C123.032 260.681 120.967 265.402 118.121 269.597C112.758 267.809 108.838 263.299 105.195 258.981C103.598 257.089 102 255.196 100.403 253.303C99.1629 251.834 97.9176 250.356 96.9136 248.716C95.6491 246.654 94.7874 244.363 94.1879 242.02C93.4174 239.007 93.0736 235.904 92.7475 232.812C92.367 229.18 92.0074 225.548 91.67 221.913C91.5102 220.175 91.3263 218.182 92.1128 216.556C93.0321 214.656 93.5804 214.873 94.9041 215.781C97.8456 217.801 100.979 219.131 103.231 222.114Z" fill="#B21024"/>
<path d="M68.2208 304.392C66.3807 297.587 66.344 290.449 66.0722 283.406C65.8532 277.708 65.4727 272.016 64.7997 266.353C63.416 254.703 60.7949 242.917 62.8378 231.364C64.4416 222.295 68.9753 213.765 75.5985 207.357C77.21 207.115 78.4186 207.557 79.9964 207.965C86.0569 209.535 91.5738 212.71 96.7918 216.164C101.337 219.174 102.08 224.566 104.614 229.387C106.825 233.597 108.894 238.193 108.372 242.917C108.006 246.245 106.376 249.315 105.818 252.618C104.94 257.809 106.766 263.038 108.638 267.959C110.006 271.554 111.416 275.137 113.026 278.63C114.212 281.203 115.534 283.837 115.566 286.669C115.613 290.666 113.106 294.196 110.609 297.318C106.9 301.956 102.964 306.412 98.8205 310.664C94.3923 315.208 89.4397 320.801 83.0898 320.805C76.7816 320.808 70.0608 311.196 68.2208 304.392" fill="#E44256"/>
<path d="M70.1218 230.7C67.9557 242.106 72.101 253.617 74.7691 264.917C77.1335 274.921 78.3996 285.301 82.5977 294.686C83.915 297.628 85.5456 300.491 87.8844 302.71C90.2248 304.928 93.3566 306.456 96.581 306.341C100.888 306.188 104.571 303.236 107.473 300.056C110.472 296.769 113.023 293.077 115.036 289.111C105.9 284.204 98.8687 276.233 92.0457 268.43L70.1218 230.7Z" fill="#B21024"/>
<path d="M86.936 229.454C93.6711 235.894 98.3216 244.476 100.034 253.629C100.809 257.77 101.009 262.056 102.477 266.004C103.942 269.953 107.071 273.657 111.247 274.251C111.656 274.31 112.121 274.364 112.366 274.698C112.625 275.049 112.513 275.541 112.379 275.957C111.197 279.629 109.228 283.048 106.644 285.916C106.065 286.556 105.375 287.21 104.512 287.266C103.65 287.32 102.743 286.39 103.156 285.631L86.936 229.454" fill="#B21024"/>
<path d="M171.763 319.356C174.266 320.546 176.875 321.497 179.408 322.621C181.28 323.453 183.437 325.027 182.931 327.011C182.617 328.237 181.373 328.97 180.197 329.441C174.912 331.559 168.641 331.042 163.776 328.089C160.8 326.282 158.235 323.585 154.835 322.819C153.869 322.602 152.846 322.544 151.964 322.094C150.326 321.259 149.617 319.333 149.126 317.562C148.601 315.656 148.167 313.726 147.822 311.778C147.341 309.047 147.044 305.018 150.132 303.627C153.04 302.318 154.741 305.235 156.366 307.19C160.601 312.291 165.753 316.499 171.763 319.356" fill="#C5C8CC"/>
<path d="M102.444 327.352C107.78 328.091 113.054 325.892 117.893 323.527C138.024 313.682 156.265 299.997 171.339 283.43C184.911 300.171 205.02 309.75 225.089 317.646C228.623 319.036 232.197 320.393 235.446 322.363C237.544 319.904 239.939 317.023 241.056 313.99C238.711 311.969 236.313 310.594 233.97 308.573C220.587 297.027 207.204 285.48 193.82 273.933C190.376 270.963 186.917 267.979 183.087 265.525C180.256 263.712 177.151 262.173 173.809 261.815C168.195 261.218 162.83 263.993 157.889 266.726C143.409 274.739 128.927 283.303 117.56 295.322L102.444 327.352" fill="#6991CB"/>
<path d="M208.837 309.758C195.68 301.627 183.789 291.437 172.321 281.066C173.979 278.918 175.017 276.3 175.282 273.603C161.148 287.694 145.39 300.16 128.419 310.674C131.922 301.343 133.747 291.389 133.816 281.425C127.984 285.567 122.48 290.12 117.56 295.321L102.444 327.351C107.781 328.09 113.056 325.892 117.894 323.526C138.026 313.681 156.266 299.997 171.341 283.43C182.892 297.681 199.184 306.74 216.153 313.991C213.673 312.652 211.233 311.236 208.837 309.758" fill="#234B85"/>
<path d="M158.373 307.04C157.593 294.531 156.328 282.051 154.583 269.639C152.84 257.255 150.535 244.697 144.605 233.683C142.646 230.047 139.469 226.182 135.353 226.563C132.369 226.841 130.111 229.288 128.235 231.621C113.835 249.511 103.506 270.651 98.2479 292.995C95.6997 303.816 87.7927 312.031 80.2407 320.198C85.1534 324.845 90.9405 329.877 97.6644 330.63C105.135 331.467 112.414 327.053 117.029 321.129C121.644 315.204 124.095 307.926 126.464 300.803C129.644 291.247 132.822 281.691 136 272.135C138.828 284.606 142.451 297.858 146.123 310.107C146.385 310.98 146.768 311.978 147.643 312.24C148.145 312.39 148.684 312.246 149.187 312.096C152.498 311.113 155.278 308.573 158.373 307.04" fill="#557DB7"/>
<g filter="url(#filter3_ddddii_105_588)">
<path d="M97.8935 207.568C98.2324 206.026 98.8942 204.532 99.9637 203.369C101.033 202.207 102.533 201.403 104.112 201.34C105.404 201.291 106.678 201.728 107.971 201.692C109.276 201.653 110.524 201.136 111.645 200.467C112.473 199.976 113.266 199.38 113.792 198.574C114.299 197.801 114.529 196.882 114.666 195.97C115.071 193.306 114.761 190.594 114.743 187.899C114.74 187.52 114.754 187.11 114.994 186.818C115.148 186.628 115.375 186.516 115.598 186.417C116.526 186.01 117.669 185.584 117.864 184.59C118.099 183.381 116.767 182.543 115.837 181.735C113.968 180.116 113.319 177.543 112.705 175.15C111.234 169.414 109.231 163.469 104.782 159.553C102.595 159.965 100.279 160.527 98.0917 160.939C99.572 163.982 100.309 167.43 99.8662 170.784C99.4234 174.136 97.74 177.371 95.0415 179.414C94.7377 179.644 94.4036 179.882 94.2725 180.239C94.1798 180.496 94.2054 180.779 94.2262 181.05C94.4867 184.264 94.1095 187.527 93.1263 190.597C92.8833 188.66 92.3477 186.762 91.542 184.984C90.8706 183.498 89.897 181.999 88.3655 181.433C87.6413 181.165 86.842 181.133 86.081 181.269C83.5136 181.73 81.5361 184.195 81.3874 186.796C81.2387 189.396 82.767 191.952 84.9988 193.301C87.2305 194.652 90.0537 194.854 92.5572 194.118C91.9113 199.284 89.5677 204.524 86.1274 208.436C89.9578 210.734 94.4244 211.96 98.8926 211.944C98.469 210.604 97.5913 208.939 97.8935 207.568" fill="url(#paint4_linear_105_588)"/>
</g>
<g filter="url(#filter4_ddddii_105_588)">
<path d="M99.4231 200.402C96.44 199.375 93.4378 198.344 90.3204 197.859C88.2422 197.536 86.0744 197.442 84.1816 196.527C83.0817 195.996 82.1065 195.198 80.9459 194.814C79.7837 194.431 78.2842 194.615 77.6639 195.668C77.1283 196.58 77.4513 197.729 77.4097 198.788C77.3314 200.806 75.9134 202.475 74.7608 204.136C73.6081 205.794 72.6441 207.956 73.5314 209.769C73.9215 210.568 74.6217 211.168 75.3523 211.672C79.2018 214.324 84.1192 214.753 88.4819 216.434C89.7785 216.934 91.0286 217.545 92.3267 218.035C93.5784 218.51 94.8717 218.869 96.189 219.11C97.4456 219.34 98.8636 219.426 99.8803 218.653C100.956 217.836 101.222 216.326 101.15 214.977C101.078 213.629 100.756 212.273 100.995 210.944C101.453 208.387 103.912 206.554 104.126 203.933C104.334 201.401 101.271 201.039 99.4231 200.402" fill="url(#paint5_linear_105_588)"/>
</g>
<path d="M106.898 178.306C107.368 178.744 107.904 179.112 108.48 179.395C108.703 179.505 108.94 179.604 109.189 179.609C109.686 179.617 110.123 179.229 110.321 178.774C110.519 178.317 110.526 177.805 110.515 177.308C111.395 178.312 112.371 178.926 113.606 179.438C112.439 180.057 111.101 180.42 109.794 180.246C108.484 180.073 107.479 179.491 106.898 178.306" fill="#1C0C0B"/>
<g filter="url(#filter5_ddddii_105_588)">
<path d="M167.265 203.115L164.069 199.763L133.307 238.395L137.85 239.353L167.265 203.115" fill="url(#paint6_linear_105_588)"/>
</g>
<path d="M109.557 170.337C109.539 170.034 109.634 169.663 109.53 169.379C109.461 169.192 109.204 169.184 109.009 169.218C107.141 169.539 105.44 170.722 104.489 172.361C105.8 171.652 107.082 170.963 108.507 170.53C108.918 170.406 109.133 170.27 109.557 170.337" fill="#1C0C0B"/>
<g filter="url(#filter6_ddddii_105_588)">
<path d="M145.862 243.28L133.306 241.27L166.389 199.765L180.853 213.972L160.87 239.833L151.597 245.74L145.862 243.28" fill="#FF6A7E"/>
</g>
<path d="M112.606 191.775C111.678 191.778 110.743 191.695 109.853 191.438C108.962 191.179 108.113 190.737 107.453 190.088C107.758 190.926 108.238 191.658 109.002 192.12C109.766 192.581 110.69 192.771 111.574 192.651C111.822 192.618 112.073 192.559 112.284 192.425C112.495 192.291 112.582 192.024 112.606 191.775" fill="#1C0C0B"/>
<g filter="url(#filter7_ddddii_105_588)">
<path d="M131.057 257.35C134.718 252.722 134.378 245.776 138.251 241.325C140.84 241.905 143.346 242.443 145.863 243.279C149.617 241.609 153.02 239.836 155.281 236.412C156.533 234.518 157.313 232.108 159.323 231.051C159.929 230.733 160.912 230.733 161.05 231.402C161.108 231.694 160.96 231.986 160.815 232.248C158.918 235.645 156.801 238.92 154.477 242.04C157.291 240.933 159.824 239.117 161.774 236.809C162.404 236.064 163.013 235.238 163.902 234.838C164.794 234.437 166.07 234.684 166.391 235.604C161.836 241.119 155.993 245.401 150.214 249.623C144.284 253.954 138.356 258.287 132.425 262.618L131.057 257.35Z" fill="url(#paint7_linear_105_588)"/>
</g>
<path d="M130.109 254.144C131.207 253.533 132.635 253.849 133.655 254.585C134.673 255.322 135.372 256.408 136.046 257.469C136.445 258.095 136.855 258.761 136.881 259.502C136.91 260.396 136.374 261.2 135.837 261.917C134.811 263.287 133.695 264.592 132.502 265.82C131.848 266.492 131.068 267.187 130.128 267.183C128.01 267.174 124.176 263.031 124.701 260.911C125.001 259.693 126.375 258.592 127.116 257.645C127.997 256.518 128.817 254.861 130.109 254.144" fill="#FFD39F"/>
<g filter="url(#filter8_ddddii_105_588)">
<path d="M79.8494 216.402C85.1905 217.309 88.4086 222.714 90.5188 227.695C93.4715 234.66 95.708 241.925 97.1836 249.342C99.0732 258.834 99.8373 268.908 104.963 277.121C110.27 271.687 115.61 266.282 120.981 260.91C122.992 258.898 125.452 256.73 128.274 257.117C131.847 257.605 133.562 261.939 133.276 265.53C132.889 270.363 130.28 274.717 127.473 278.673C121.932 286.482 115.341 293.548 107.933 299.619C105.011 302.013 101.482 304.379 97.7591 303.73C94.7488 303.204 92.4292 300.808 90.6435 298.331C87.5389 294.027 85.3744 289.132 83.2801 284.257C76.0622 267.455 69.3335 250.101 67.85 231.878C67.5143 227.761 67.607 223.359 69.8387 219.724C71.6676 216.747 76.6154 215.855 79.8494 216.402Z" fill="url(#paint8_linear_105_588)"/>
</g>
<g filter="url(#filter9_ddddii_105_588)">
<path d="M120.888 229.426C119.889 225.162 118.919 220.893 117.975 216.616C117.734 215.518 117.493 214.375 117.752 213.281C117.998 212.239 118.668 211.356 119.322 210.509C120.831 208.553 122.338 206.597 123.847 204.642C124.209 204.172 124.595 203.684 125.142 203.453C125.614 203.253 126.148 203.272 126.659 203.304C128.069 203.39 129.476 203.542 130.872 203.761C131.223 203.816 131.633 203.919 131.77 204.246C131.965 204.707 131.473 205.153 131.035 205.397C129.761 206.109 128.389 206.648 126.971 206.996C126.589 207.091 126.175 207.186 125.916 207.482C125.718 207.708 125.644 208.013 125.577 208.306C125.006 210.786 124.437 213.265 123.866 215.745C124.281 216.423 124.707 217.1 125.12 217.777C125.555 218.489 125.989 219.204 126.285 219.983C126.666 220.982 126.803 222.055 126.937 223.115C127.043 223.945 127.149 224.775 127.254 225.606C127.417 226.884 127.58 228.163 127.742 229.442C127.798 229.874 127.849 230.331 127.684 230.735C127.446 231.321 126.824 231.638 126.252 231.908C125.12 232.441 123.895 232.987 122.661 232.773C121.429 232.558 120.353 230.556 120.888 229.426" fill="url(#paint9_linear_105_588)"/>
</g>
<path d="M125.411 190.133C124.487 187.891 123.551 185.589 123.456 183.166C123.278 178.662 126.018 174.194 124.889 169.83C124.525 168.425 123.777 167.149 123.33 165.768C122.29 162.563 122.927 159.088 123.573 155.782C123.929 160.284 124.376 164.682 125.803 168.967C126.286 170.415 126.894 171.854 126.958 173.381C127.048 175.455 126.128 177.42 125.529 179.411C124.463 182.957 124.447 186.558 125.411 190.133Z" fill="#C2BBC0"/>
<path d="M128.359 193.298C129.185 191.844 130.022 190.352 130.107 188.781C130.266 185.861 127.816 182.964 128.826 180.135C129.151 179.224 129.82 178.397 130.22 177.502C131.15 175.424 130.58 173.171 130.002 171.027C129.684 173.946 129.285 176.797 128.009 179.575C127.577 180.515 127.033 181.447 126.976 182.437C126.895 183.782 127.718 185.056 128.253 186.347C129.206 188.645 129.221 190.98 128.359 193.298Z" fill="#C2BBC0"/>
<path d="M129.576 164.142C128.566 166.971 128.918 166.203 128.759 169.122C128.224 167.832 127.646 167.789 127.726 166.444C127.783 165.454 128.327 164.522 128.759 163.582C130.035 160.804 130.435 157.953 130.752 155.034C131.331 157.178 131.9 159.431 130.97 161.509C130.57 162.404 129.901 163.231 129.576 164.142Z" fill="#C2BBC0"/>
<path d="M126.081 154.175C126.727 156.276 126.503 155.706 126.604 157.874C126.947 156.915 127.316 156.884 127.265 155.885C127.229 155.15 126.88 154.457 126.604 153.76C125.788 151.697 125.532 149.579 125.329 147.411C124.959 149.003 124.595 150.677 125.19 152.22C125.446 152.884 125.874 153.499 126.081 154.175Z" fill="#C2BBC0"/>
<path d="M24.6853 385.198C22.6453 385.198 21.0853 384.592 20.0053 383.38C18.9253 382.156 18.3853 380.488 18.3853 378.376C18.3853 376.984 18.6673 375.772 19.2313 374.74C19.8073 373.696 20.5933 372.892 21.5893 372.328C22.5853 371.764 23.7133 371.482 24.9733 371.482C25.5013 371.482 26.0113 371.518 26.5033 371.59C26.9953 371.65 27.5773 371.734 28.2493 371.842C28.7533 371.926 29.0293 371.968 29.0773 371.968L28.8793 375.676H27.2233L26.6653 373.102C26.5333 372.97 26.3053 372.862 25.9813 372.778C25.6573 372.694 25.2433 372.652 24.7393 372.652C23.7193 372.652 22.8973 373.126 22.2733 374.074C21.6613 375.01 21.3553 376.372 21.3553 378.16C21.3553 379.888 21.6493 381.298 22.2373 382.39C22.8253 383.482 23.6833 384.028 24.8113 384.028C25.3513 384.028 25.7653 383.98 26.0533 383.884C26.3533 383.776 26.6053 383.626 26.8093 383.434L27.6013 381.58L29.1133 381.724L28.7533 384.514C28.5013 384.538 28.2493 384.586 27.9973 384.658C27.7573 384.718 27.6073 384.754 27.5473 384.766C27.0673 384.898 26.6173 385 26.1973 385.072C25.7893 385.156 25.2853 385.198 24.6853 385.198ZM41.9329 374.992V376.054L40.7089 376.288V383.74L41.9329 383.92V385H36.9109V383.92L38.1529 383.74V376.162H34.3189V383.74L35.5069 383.92V385H30.5389V383.92L31.7629 383.74V376.288L30.5029 376.054V374.992H41.9329ZM43.3483 382.192C43.3483 381.1 43.8943 380.278 44.9863 379.726C46.0903 379.174 47.5123 378.892 49.2523 378.88V378.466C49.2523 377.974 49.1983 377.59 49.0903 377.314C48.9943 377.038 48.8083 376.834 48.5323 376.702C48.2683 376.558 47.8783 376.486 47.3623 376.486C46.7743 376.486 46.2463 376.564 45.7783 376.72C45.3103 376.864 44.8243 377.056 44.3203 377.296L43.7623 376.144C43.9423 375.988 44.2423 375.802 44.6623 375.586C45.0943 375.37 45.6043 375.184 46.1923 375.028C46.7803 374.86 47.3863 374.776 48.0103 374.776C48.9343 374.776 49.6543 374.896 50.1703 375.136C50.6983 375.376 51.0763 375.76 51.3043 376.288C51.5323 376.816 51.6463 377.524 51.6463 378.412V383.92H52.6183V384.928C52.3783 384.988 52.0363 385.048 51.5923 385.108C51.1483 385.168 50.7583 385.198 50.4223 385.198C50.0143 385.198 49.7383 385.138 49.5943 385.018C49.4623 384.898 49.3963 384.652 49.3963 384.28V383.794C49.0723 384.154 48.6523 384.478 48.1363 384.766C47.6203 385.054 47.0383 385.198 46.3903 385.198C45.8383 385.198 45.3283 385.084 44.8603 384.856C44.4043 384.616 44.0383 384.274 43.7623 383.83C43.4863 383.374 43.3483 382.828 43.3483 382.192ZM47.5423 383.704C47.7943 383.704 48.0823 383.632 48.4063 383.488C48.7303 383.332 49.0123 383.146 49.2523 382.93V379.978C48.1723 379.978 47.3623 380.164 46.8223 380.536C46.2943 380.896 46.0303 381.364 46.0303 381.94C46.0303 382.516 46.1623 382.954 46.4263 383.254C46.7023 383.554 47.0743 383.704 47.5423 383.704ZM53.5076 380.05C53.5076 379.018 53.7116 378.1 54.1196 377.296C54.5396 376.492 55.1336 375.868 55.9016 375.424C56.6816 374.968 57.5876 374.74 58.6196 374.74C59.0996 374.74 59.5136 374.776 59.8616 374.848C60.2096 374.92 60.5996 375.016 61.0316 375.136L61.5536 375.28L61.4456 378.358H59.8796L59.4296 376.378C59.3576 376.066 59.0036 375.91 58.3676 375.91C57.6956 375.91 57.1676 376.204 56.7836 376.792C56.4116 377.38 56.2196 378.298 56.2076 379.546C56.2076 380.866 56.4356 381.88 56.8916 382.588C57.3476 383.284 57.9536 383.632 58.7096 383.632C59.6216 383.632 60.4616 383.386 61.2296 382.894L61.6436 383.83C61.3316 384.166 60.8516 384.478 60.2036 384.766C59.5676 385.054 58.8776 385.198 58.1336 385.198C56.5976 385.198 55.4396 384.724 54.6596 383.776C53.8916 382.828 53.5076 381.586 53.5076 380.05ZM68.2236 374.992V376.054L66.8376 376.288V381.724L67.8456 380.392L71.3376 376.666V376.288L70.1316 376.054V374.992H75.1176V376.054L73.8936 376.288V383.758L75.1716 383.92V385H69.9876V383.92L71.3376 383.758V378.232L70.2936 379.726L66.8376 383.38V383.794L68.0256 383.92V385H63.0396V383.92L64.2996 383.758V376.288L63.0756 376.054V374.992H68.2236ZM85.2303 371.194C85.1823 371.53 85.0742 371.782 84.9062 371.95C84.7503 372.118 84.5103 372.208 84.1863 372.22C83.2263 372.256 82.3323 372.358 81.5043 372.526C80.6883 372.694 80.0883 372.928 79.7043 373.228C79.0443 373.756 78.6663 374.788 78.5703 376.324C78.9183 375.916 79.3923 375.556 79.9923 375.244C80.6043 374.932 81.2523 374.776 81.9363 374.776C83.3283 374.776 84.3363 375.178 84.9603 375.982C85.5843 376.774 85.8963 377.98 85.8963 379.6C85.8963 381.328 85.4883 382.684 84.6723 383.668C83.8683 384.652 82.7223 385.144 81.2343 385.144C79.6863 385.144 78.4923 384.568 77.6523 383.416C76.8243 382.252 76.4103 380.518 76.4103 378.214C76.4103 376.69 76.6503 375.43 77.1303 374.434C77.6223 373.426 78.2343 372.622 78.9663 372.022C79.4463 371.638 80.0343 371.326 80.7303 371.086C81.4263 370.834 82.0983 370.678 82.7463 370.618C83.1303 370.594 83.4123 370.546 83.5923 370.474C83.7723 370.39 83.8983 370.246 83.9703 370.042L84.2223 369.304H85.5183L85.2303 371.194ZM81.2703 376.144C80.7423 376.144 80.2863 376.27 79.9023 376.522C79.5183 376.762 79.2543 377.014 79.1103 377.278C79.1103 378.97 79.1763 380.308 79.3083 381.292C79.4403 382.264 79.6563 382.978 79.9563 383.434C80.2563 383.878 80.6702 384.1 81.1982 384.1C81.9663 384.1 82.5003 383.716 82.8003 382.948C83.1003 382.18 83.2503 381.046 83.2503 379.546C83.2503 378.658 83.1783 377.968 83.0343 377.476C82.9023 376.984 82.6923 376.642 82.4043 376.45C82.1283 376.246 81.7503 376.144 81.2703 376.144ZM87.2455 380.014C87.2455 378.886 87.4675 377.926 87.9115 377.134C88.3675 376.342 88.9735 375.748 89.7295 375.352C90.4855 374.944 91.3075 374.74 92.1955 374.74C93.7075 374.74 94.8715 375.208 95.6875 376.144C96.5155 377.068 96.9295 378.328 96.9295 379.924C96.9295 381.064 96.7015 382.036 96.2455 382.84C95.8015 383.632 95.2015 384.226 94.4455 384.622C93.7015 385.006 92.8795 385.198 91.9795 385.198C90.4795 385.198 89.3155 384.736 88.4875 383.812C87.6595 382.876 87.2455 381.61 87.2455 380.014ZM92.1235 384.028C93.4795 384.028 94.1575 382.72 94.1575 380.104C94.1575 378.736 93.9955 377.698 93.6715 376.99C93.3475 376.27 92.8195 375.91 92.0875 375.91C90.6955 375.91 89.9995 377.218 89.9995 379.834C89.9995 381.202 90.1675 382.246 90.5035 382.966C90.8515 383.674 91.3915 384.028 92.1235 384.028ZM102.927 375.28C103.299 375.28 103.803 375.214 104.439 375.082C104.847 374.986 105.231 374.914 105.591 374.866C105.963 374.818 106.389 374.794 106.869 374.794C108.249 374.794 109.269 375.004 109.929 375.424C110.601 375.844 110.937 376.444 110.937 377.224C110.937 377.74 110.751 378.208 110.379 378.628C110.019 379.048 109.521 379.378 108.885 379.618C109.725 379.702 110.367 379.954 110.811 380.374C111.255 380.794 111.477 381.334 111.477 381.994C111.477 382.99 111.093 383.764 110.325 384.316C109.557 384.868 108.405 385.144 106.869 385.144C105.957 385.144 105.189 385.078 104.565 384.946C103.941 384.814 103.347 384.658 102.783 384.478L102.963 382.12H104.457L104.781 383.524C104.925 383.692 105.153 383.824 105.465 383.92C105.789 384.004 106.143 384.046 106.527 384.046C107.247 384.046 107.775 383.872 108.111 383.524C108.447 383.164 108.615 382.714 108.615 382.174C108.615 380.986 107.997 380.398 106.761 380.41C106.617 380.422 106.437 380.446 106.221 380.482C106.005 380.518 105.825 380.554 105.681 380.59L105.699 379.258L106.455 379.15C107.019 379.066 107.463 378.862 107.787 378.538C108.111 378.214 108.273 377.794 108.273 377.278C108.273 376.798 108.135 376.45 107.859 376.234C107.595 376.006 107.157 375.892 106.545 375.892C106.101 375.892 105.723 375.964 105.411 376.108C105.099 376.252 104.889 376.414 104.781 376.594L104.547 378.052H102.927V375.28ZM112.536 382.192C112.536 381.1 113.082 380.278 114.174 379.726C115.278 379.174 116.7 378.892 118.44 378.88V378.466C118.44 377.974 118.386 377.59 118.278 377.314C118.182 377.038 117.996 376.834 117.72 376.702C117.456 376.558 117.066 376.486 116.55 376.486C115.962 376.486 115.434 376.564 114.966 376.72C114.498 376.864 114.012 377.056 113.508 377.296L112.95 376.144C113.13 375.988 113.43 375.802 113.85 375.586C114.282 375.37 114.792 375.184 115.38 375.028C115.968 374.86 116.574 374.776 117.198 374.776C118.122 374.776 118.842 374.896 119.358 375.136C119.886 375.376 120.264 375.76 120.492 376.288C120.72 376.816 120.834 377.524 120.834 378.412V383.92H121.806V384.928C121.566 384.988 121.224 385.048 120.78 385.108C120.336 385.168 119.946 385.198 119.61 385.198C119.202 385.198 118.926 385.138 118.782 385.018C118.65 384.898 118.584 384.652 118.584 384.28V383.794C118.26 384.154 117.84 384.478 117.324 384.766C116.808 385.054 116.226 385.198 115.578 385.198C115.026 385.198 114.516 385.084 114.048 384.856C113.592 384.616 113.226 384.274 112.95 383.83C112.674 383.374 112.536 382.828 112.536 382.192ZM116.73 383.704C116.982 383.704 117.27 383.632 117.594 383.488C117.918 383.332 118.2 383.146 118.44 382.93V379.978C117.36 379.978 116.55 380.164 116.01 380.536C115.482 380.896 115.218 381.364 115.218 381.94C115.218 382.516 115.35 382.954 115.614 383.254C115.89 383.554 116.262 383.704 116.73 383.704ZM128.803 389.482C128.587 389.482 128.353 389.464 128.101 389.428C127.861 389.392 127.687 389.35 127.579 389.302V387.376C127.663 387.424 127.831 387.472 128.083 387.52C128.335 387.568 128.563 387.592 128.767 387.592C129.367 387.592 129.859 387.394 130.243 386.998C130.639 386.602 131.005 385.936 131.341 385H130.369L126.985 376.27L126.175 376.036V374.992H131.125V376.036L129.811 376.252L131.413 381.238L132.061 383.362L132.619 381.238L134.095 376.252L132.961 376.036V374.992H136.867V376.036L135.985 376.252C135.325 378.268 134.671 380.212 134.023 382.084C133.375 383.956 132.997 385.006 132.889 385.234C132.505 386.242 132.139 387.046 131.791 387.646C131.443 388.246 131.029 388.702 130.549 389.014C130.069 389.326 129.487 389.482 128.803 389.482ZM144.179 380.878C144.095 380.914 143.885 381.01 143.549 381.166C143.213 381.322 142.853 381.442 142.469 381.526C142.085 381.598 141.671 381.634 141.227 381.634C140.027 381.634 139.151 381.346 138.599 380.77C138.047 380.194 137.771 379.204 137.771 377.8V376.288L136.781 376.054V374.992H141.389V376.054L140.363 376.288V377.35C140.363 378.19 140.411 378.82 140.507 379.24C140.603 379.648 140.783 379.936 141.047 380.104C141.311 380.26 141.707 380.338 142.235 380.338C142.631 380.338 142.997 380.284 143.333 380.176C143.681 380.068 143.963 379.942 144.179 379.798V376.288L142.955 376.054V374.992H147.887V376.054L146.699 376.288V383.74L147.905 383.92V385H142.577V383.92L144.179 383.74V380.878ZM149.257 382.192C149.257 381.1 149.803 380.278 150.895 379.726C151.999 379.174 153.421 378.892 155.161 378.88V378.466C155.161 377.974 155.107 377.59 154.999 377.314C154.903 377.038 154.717 376.834 154.441 376.702C154.177 376.558 153.787 376.486 153.271 376.486C152.683 376.486 152.155 376.564 151.687 376.72C151.219 376.864 150.733 377.056 150.229 377.296L149.671 376.144C149.851 375.988 150.151 375.802 150.571 375.586C151.003 375.37 151.513 375.184 152.101 375.028C152.689 374.86 153.295 374.776 153.919 374.776C154.843 374.776 155.563 374.896 156.079 375.136C156.607 375.376 156.985 375.76 157.213 376.288C157.441 376.816 157.555 377.524 157.555 378.412V383.92H158.527V384.928C158.287 384.988 157.945 385.048 157.501 385.108C157.057 385.168 156.667 385.198 156.331 385.198C155.923 385.198 155.647 385.138 155.503 385.018C155.371 384.898 155.305 384.652 155.305 384.28V383.794C154.981 384.154 154.561 384.478 154.045 384.766C153.529 385.054 152.947 385.198 152.299 385.198C151.747 385.198 151.237 385.084 150.769 384.856C150.313 384.616 149.947 384.274 149.671 383.83C149.395 383.374 149.257 382.828 149.257 382.192ZM153.451 383.704C153.703 383.704 153.991 383.632 154.315 383.488C154.639 383.332 154.921 383.146 155.161 382.93V379.978C154.081 379.978 153.271 380.164 152.731 380.536C152.203 380.896 151.939 381.364 151.939 381.94C151.939 382.516 152.071 382.954 152.335 383.254C152.611 383.554 152.983 383.704 153.451 383.704ZM159.416 380.05C159.416 379.018 159.62 378.1 160.028 377.296C160.448 376.492 161.042 375.868 161.81 375.424C162.59 374.968 163.496 374.74 164.528 374.74C165.008 374.74 165.422 374.776 165.77 374.848C166.118 374.92 166.508 375.016 166.94 375.136L167.462 375.28L167.354 378.358H165.788L165.338 376.378C165.266 376.066 164.912 375.91 164.276 375.91C163.604 375.91 163.076 376.204 162.692 376.792C162.32 377.38 162.128 378.298 162.116 379.546C162.116 380.866 162.344 381.88 162.8 382.588C163.256 383.284 163.862 383.632 164.618 383.632C165.53 383.632 166.37 383.386 167.138 382.894L167.552 383.83C167.24 384.166 166.76 384.478 166.112 384.766C165.476 385.054 164.786 385.198 164.042 385.198C162.506 385.198 161.348 384.724 160.568 383.776C159.8 382.828 159.416 381.586 159.416 380.05ZM179.154 374.992L179.316 379.096H177.768L177.228 376.252L175.32 376.108V383.74L177.696 383.92V385H170.424V383.92L172.764 383.74V376.108L170.748 376.252L170.226 379.096H168.678L168.822 374.992H179.154ZM184.111 374.956C184.975 374.908 185.647 374.884 186.127 374.884C187.735 374.884 188.845 375.082 189.457 375.478C190.069 375.874 190.375 376.444 190.375 377.188C190.375 377.764 190.213 378.25 189.889 378.646C189.565 379.042 189.085 379.336 188.449 379.528C189.361 379.612 190.051 379.876 190.519 380.32C190.987 380.752 191.221 381.28 191.221 381.904C191.221 382.936 190.825 383.728 190.033 384.28C189.253 384.832 187.903 385.108 185.983 385.108C185.587 385.108 185.233 385.102 184.921 385.09C184.609 385.078 184.351 385.066 184.147 385.054C183.631 385.018 183.175 385 182.779 385H180.709V383.92L181.915 383.722V376.288L180.709 376.054V374.992H182.905L184.111 374.956ZM185.821 379.168C186.529 379.168 187.039 379 187.351 378.664C187.675 378.328 187.837 377.902 187.837 377.386C187.837 376.93 187.687 376.588 187.387 376.36C187.099 376.132 186.583 376.018 185.839 376.018C185.179 376.018 184.705 376.024 184.417 376.036V379.168H185.821ZM184.417 383.83C184.513 383.866 184.705 383.896 184.993 383.92C185.293 383.944 185.563 383.956 185.803 383.956C186.727 383.956 187.381 383.806 187.765 383.506C188.149 383.194 188.341 382.726 188.341 382.102C188.341 381.478 188.155 381.016 187.783 380.716C187.411 380.404 186.817 380.248 186.001 380.248H184.417V383.83ZM197.757 374.992V376.054L196.371 376.288V381.724L197.379 380.392L200.871 376.666V376.288L199.665 376.054V374.992H204.651V376.054L203.427 376.288V383.758L204.705 383.92V385H199.521V383.92L200.871 383.758V378.232L199.827 379.726L196.371 383.38V383.794L197.559 383.92V385H192.573V383.92L193.833 383.758V376.288L192.609 376.054V374.992H197.757ZM210.785 385.198C209.201 385.198 208.019 384.736 207.239 383.812C206.471 382.876 206.087 381.604 206.087 379.996C206.087 378.916 206.285 377.98 206.681 377.188C207.089 376.396 207.659 375.79 208.391 375.37C209.123 374.95 209.969 374.74 210.929 374.74C212.129 374.74 213.053 375.058 213.701 375.694C214.349 376.318 214.685 377.212 214.709 378.376C214.709 379.168 214.661 379.756 214.565 380.14H208.715C208.763 381.232 209.021 382.084 209.489 382.696C209.957 383.296 210.623 383.596 211.487 383.596C211.955 383.596 212.435 383.518 212.927 383.362C213.431 383.206 213.827 383.02 214.115 382.804L214.565 383.794C214.241 384.142 213.713 384.466 212.981 384.766C212.261 385.054 211.529 385.198 210.785 385.198ZM212.189 379.06C212.213 378.724 212.225 378.466 212.225 378.286C212.225 376.69 211.691 375.892 210.623 375.892C210.035 375.892 209.579 376.126 209.255 376.594C208.931 377.062 208.751 377.884 208.715 379.06H212.189ZM223.855 374.956C224.719 374.908 225.391 374.884 225.871 374.884C227.479 374.884 228.589 375.082 229.201 375.478C229.813 375.874 230.119 376.444 230.119 377.188C230.119 377.764 229.957 378.25 229.633 378.646C229.309 379.042 228.829 379.336 228.193 379.528C229.105 379.612 229.795 379.876 230.263 380.32C230.731 380.752 230.965 381.28 230.965 381.904C230.965 382.936 230.569 383.728 229.777 384.28C228.997 384.832 227.647 385.108 225.727 385.108C225.331 385.108 224.977 385.102 224.665 385.09C224.353 385.078 224.095 385.066 223.891 385.054C223.375 385.018 222.919 385 222.523 385H220.453V383.92L221.659 383.722V376.288L220.453 376.054V374.992H222.649L223.855 374.956ZM225.565 379.168C226.273 379.168 226.783 379 227.095 378.664C227.419 378.328 227.581 377.902 227.581 377.386C227.581 376.93 227.431 376.588 227.131 376.36C226.843 376.132 226.327 376.018 225.583 376.018C224.923 376.018 224.449 376.024 224.161 376.036V379.168H225.565ZM224.161 383.83C224.257 383.866 224.449 383.896 224.737 383.92C225.037 383.944 225.307 383.956 225.547 383.956C226.471 383.956 227.125 383.806 227.509 383.506C227.893 383.194 228.085 382.726 228.085 382.102C228.085 381.478 227.899 381.016 227.527 380.716C227.155 380.404 226.561 380.248 225.745 380.248H224.161V383.83ZM236.624 380.014C236.624 378.886 236.846 377.926 237.29 377.134C237.746 376.342 238.352 375.748 239.108 375.352C239.864 374.944 240.686 374.74 241.574 374.74C243.086 374.74 244.25 375.208 245.066 376.144C245.894 377.068 246.308 378.328 246.308 379.924C246.308 381.064 246.08 382.036 245.624 382.84C245.18 383.632 244.58 384.226 243.824 384.622C243.08 385.006 242.258 385.198 241.358 385.198C239.858 385.198 238.694 384.736 237.866 383.812C237.038 382.876 236.624 381.61 236.624 380.014ZM241.502 384.028C242.858 384.028 243.536 382.72 243.536 380.104C243.536 378.736 243.374 377.698 243.05 376.99C242.726 376.27 242.198 375.91 241.466 375.91C240.074 375.91 239.378 377.218 239.378 379.834C239.378 381.202 239.546 382.246 239.882 382.966C240.23 383.674 240.77 384.028 241.502 384.028ZM259.357 374.992V376.054L258.133 376.288V383.74L259.357 383.92V385H254.335V383.92L255.577 383.74V376.162H251.743V383.74L252.931 383.92V385H247.963V383.92L249.187 383.74V376.288L247.927 376.054V374.992H259.357ZM270.924 379.672C270.924 380.68 270.714 381.604 270.294 382.444C269.886 383.284 269.28 383.956 268.476 384.46C267.684 384.952 266.736 385.198 265.632 385.198C265.392 385.198 265.14 385.174 264.876 385.126C264.624 385.09 264.42 385.042 264.264 384.982L264.318 386.476V388.114L265.992 388.33V389.356H260.646V388.33L261.816 388.114V376.702L260.646 376.378V375.136L263.616 374.758H263.652L264.102 375.118V376.126C264.402 375.754 264.81 375.43 265.326 375.154C265.842 374.878 266.406 374.74 267.018 374.74C268.158 374.74 269.094 375.148 269.826 375.964C270.558 376.768 270.924 378.004 270.924 379.672ZM266.082 376.234C265.722 376.234 265.38 376.312 265.056 376.468C264.732 376.624 264.486 376.798 264.318 376.99V383.668C264.402 383.788 264.57 383.89 264.822 383.974C265.086 384.058 265.374 384.1 265.686 384.1C266.466 384.1 267.084 383.764 267.54 383.092C268.008 382.408 268.242 381.34 268.242 379.888C268.242 378.664 268.044 377.752 267.648 377.152C267.252 376.54 266.73 376.234 266.082 376.234ZM272.396 380.014C272.396 378.886 272.618 377.926 273.062 377.134C273.518 376.342 274.124 375.748 274.88 375.352C275.636 374.944 276.458 374.74 277.346 374.74C278.858 374.74 280.022 375.208 280.838 376.144C281.666 377.068 282.08 378.328 282.08 379.924C282.08 381.064 281.852 382.036 281.396 382.84C280.952 383.632 280.352 384.226 279.596 384.622C278.852 385.006 278.03 385.198 277.13 385.198C275.63 385.198 274.466 384.736 273.638 383.812C272.81 382.876 272.396 381.61 272.396 380.014ZM277.274 384.028C278.63 384.028 279.308 382.72 279.308 380.104C279.308 378.736 279.146 377.698 278.822 376.99C278.498 376.27 277.97 375.91 277.238 375.91C275.846 375.91 275.15 377.218 275.15 379.834C275.15 381.202 275.318 382.246 275.654 382.966C276.002 383.674 276.542 384.028 277.274 384.028ZM283.482 380.05C283.482 379.018 283.686 378.1 284.094 377.296C284.514 376.492 285.108 375.868 285.876 375.424C286.656 374.968 287.562 374.74 288.594 374.74C289.074 374.74 289.488 374.776 289.836 374.848C290.184 374.92 290.574 375.016 291.006 375.136L291.528 375.28L291.42 378.358H289.854L289.404 376.378C289.332 376.066 288.978 375.91 288.342 375.91C287.67 375.91 287.142 376.204 286.758 376.792C286.386 377.38 286.194 378.298 286.182 379.546C286.182 380.866 286.41 381.88 286.866 382.588C287.322 383.284 287.928 383.632 288.684 383.632C289.596 383.632 290.436 383.386 291.204 382.894L291.618 383.83C291.306 384.166 290.826 384.478 290.178 384.766C289.542 385.054 288.852 385.198 288.108 385.198C286.572 385.198 285.414 384.724 284.634 383.776C283.866 382.828 283.482 381.586 283.482 380.05ZM297.586 385.198C296.002 385.198 294.82 384.736 294.04 383.812C293.272 382.876 292.888 381.604 292.888 379.996C292.888 378.916 293.086 377.98 293.482 377.188C293.89 376.396 294.46 375.79 295.192 375.37C295.924 374.95 296.77 374.74 297.73 374.74C298.93 374.74 299.854 375.058 300.502 375.694C301.15 376.318 301.486 377.212 301.51 378.376C301.51 379.168 301.462 379.756 301.366 380.14H295.516C295.564 381.232 295.822 382.084 296.29 382.696C296.758 383.296 297.424 383.596 298.288 383.596C298.756 383.596 299.236 383.518 299.728 383.362C300.232 383.206 300.628 383.02 300.916 382.804L301.366 383.794C301.042 384.142 300.514 384.466 299.782 384.766C299.062 385.054 298.33 385.198 297.586 385.198ZM298.99 379.06C299.014 378.724 299.026 378.466 299.026 378.286C299.026 376.69 298.492 375.892 297.424 375.892C296.836 375.892 296.38 376.126 296.056 376.594C295.732 377.062 295.552 377.884 295.516 379.06H298.99Z" fill="#12181F"/>
<path opacity="0.8" d="M73.5413 405.246H69.3973V401.2H67.7873V411H69.3973V406.562H73.5413V411H75.1513V401.2H73.5413V405.246ZM82.2046 409.936C81.8266 409.936 81.7286 409.656 81.7286 409.04V406.324C81.7286 404.644 80.9166 403.804 79.2786 403.804C78.5366 403.804 77.8646 403.944 77.2626 404.224V405.596C77.8926 405.218 78.4946 405.036 79.0686 405.036C79.8106 405.036 80.2446 405.4 80.2446 406.464V406.758C80.0206 406.744 79.8526 406.73 79.7406 406.73C77.7806 406.73 76.5626 407.724 76.5626 409.222C76.5626 410.412 77.3186 411.14 78.4946 411.14C79.3206 411.14 79.9786 410.734 80.4686 409.936C80.5806 410.608 81.0986 411.14 81.8406 411.14C82.0646 411.14 82.2606 411.112 82.4286 411.056V409.908C82.3586 409.922 82.2746 409.936 82.2046 409.936ZM78.8726 409.992C78.4106 409.992 78.1026 409.656 78.1026 409.026C78.1026 408.284 78.6626 407.71 79.7686 407.71C79.8666 407.71 80.0206 407.724 80.2446 407.738V408.284C80.2446 409.292 79.5866 409.992 78.8726 409.992ZM87.1854 408.144L84.8474 403.944H83.6434V411H85.1414V407.01L86.9334 410.188H87.4374L89.2294 407.01V411H90.7274V403.944H89.5374L87.1854 408.144ZM96.0003 404.742C95.4263 405.372 95.1323 406.282 95.1323 407.472C95.1323 408.662 95.4263 409.558 96.0003 410.188C96.5743 410.818 97.3163 411.14 98.2123 411.14C99.1083 411.14 99.8503 410.818 100.424 410.188C100.998 409.558 101.292 408.662 101.292 407.472C101.292 406.282 100.998 405.372 100.424 404.742C99.8503 404.112 99.1083 403.804 98.2123 403.804C97.3163 403.804 96.5743 404.112 96.0003 404.742ZM97.1903 409.32C96.9243 408.914 96.7983 408.298 96.7983 407.472C96.7983 406.646 96.9243 406.03 97.1903 405.624C97.4423 405.218 97.7783 405.022 98.2123 405.022C98.6463 405.022 98.9823 405.218 99.2483 405.624C99.5003 406.03 99.6263 406.646 99.6263 407.472C99.6263 408.298 99.5003 408.914 99.2483 409.32C98.9823 409.726 98.6463 409.922 98.2123 409.922C97.7783 409.922 97.4423 409.726 97.1903 409.32ZM106.314 406.912C105.964 407.178 105.53 407.304 105.026 407.304C104.172 407.304 103.85 406.926 103.85 405.47V403.944H102.31V405.96C102.31 407.738 103.052 408.62 104.536 408.62C105.138 408.62 105.74 408.48 106.314 408.186V411H107.854V403.944H106.314V406.912ZM112.349 409.922C111.495 409.922 110.935 409.138 110.935 407.5H115.065C115.065 405.036 114.127 403.804 112.265 403.804C111.411 403.804 110.697 404.126 110.123 404.784C109.549 405.442 109.269 406.338 109.269 407.472C109.269 408.662 109.563 409.558 110.137 410.188C110.711 410.818 111.453 411.14 112.349 411.14C113.763 411.14 114.827 410.272 114.981 408.76H113.525C113.413 409.544 112.909 409.922 112.349 409.922ZM112.265 404.924C112.993 404.924 113.343 405.61 113.399 406.506H111.005C111.173 405.456 111.593 404.924 112.265 404.924ZM120.627 406.646H118.023V403.944H116.483V411H118.023V407.864H120.627V411H122.167V403.944H120.627V406.646ZM125.487 406.646V403.944H123.975V407.822V411H126.929C128.511 411 129.421 410.244 129.421 408.788C129.421 407.388 128.497 406.646 126.929 406.646H125.487ZM125.487 409.824V407.822H126.747C127.489 407.822 127.853 408.074 127.853 408.788C127.853 409.558 127.489 409.824 126.747 409.824H125.487ZM138.078 407.374C138.596 407.052 138.848 406.562 138.848 405.932C138.848 404.686 137.938 403.944 136.384 403.944H133.696V405.05V407.962V411H136.664C138.232 411 139.142 410.258 139.142 408.956C139.142 408.242 138.792 407.71 138.078 407.374ZM136.202 405.05C136.93 405.05 137.28 405.302 137.28 405.96C137.28 406.646 136.944 406.912 136.202 406.912H135.18V405.05H136.202ZM135.18 409.894V407.962H136.468C137.238 407.962 137.574 408.214 137.574 408.872C137.574 409.558 137.21 409.894 136.468 409.894H135.18ZM145.683 409.936C145.305 409.936 145.207 409.656 145.207 409.04V406.324C145.207 404.644 144.395 403.804 142.757 403.804C142.015 403.804 141.343 403.944 140.741 404.224V405.596C141.371 405.218 141.973 405.036 142.547 405.036C143.289 405.036 143.723 405.4 143.723 406.464V406.758C143.499 406.744 143.331 406.73 143.219 406.73C141.259 406.73 140.041 407.724 140.041 409.222C140.041 410.412 140.797 411.14 141.973 411.14C142.799 411.14 143.457 410.734 143.947 409.936C144.059 410.608 144.577 411.14 145.319 411.14C145.543 411.14 145.739 411.112 145.907 411.056V409.908C145.837 409.922 145.753 409.936 145.683 409.936ZM142.351 409.992C141.889 409.992 141.581 409.656 141.581 409.026C141.581 408.284 142.141 407.71 143.247 407.71C143.345 407.71 143.499 407.724 143.723 407.738V408.284C143.723 409.292 143.065 409.992 142.351 409.992ZM155.914 409.936C155.536 409.936 155.354 409.74 155.256 409.236L155.116 408.564C154.962 407.85 154.584 407.402 153.968 407.22C154.626 407.038 154.948 406.744 155.06 406.17L155.144 405.708C155.256 405.148 155.452 405.008 155.83 405.008C155.9 405.008 155.998 405.022 156.124 405.036V403.944C155.942 403.846 155.69 403.804 155.354 403.804C154.402 403.804 153.842 404.308 153.66 405.33L153.576 405.792C153.464 406.408 153.142 406.646 152.428 406.646H152.078V403.944H150.706V406.646H150.356C149.642 406.646 149.306 406.408 149.194 405.792L149.124 405.33C148.942 404.322 148.438 403.804 147.416 403.804C147.066 403.804 146.814 403.846 146.66 403.944V405.036C146.772 405.022 146.87 405.008 146.94 405.008C147.318 405.008 147.514 405.148 147.626 405.708L147.71 406.17C147.822 406.744 148.144 407.038 148.802 407.22C148.2 407.402 147.822 407.85 147.668 408.564L147.528 409.236C147.43 409.698 147.206 409.936 146.87 409.936C146.772 409.936 146.688 409.922 146.59 409.908V411C146.828 411.098 147.108 411.14 147.458 411.14C148.368 411.14 148.816 410.608 149.054 409.53L149.222 408.774C149.376 408.102 149.572 407.864 150.356 407.864H150.706V411H152.078V407.864H152.428C153.212 407.864 153.422 408.102 153.548 408.774L153.716 409.53C153.954 410.608 154.416 411.14 155.312 411.14C155.648 411.14 155.942 411.098 156.194 411V409.908C156.096 409.922 156.012 409.936 155.914 409.936ZM161.616 406.646H159.012V403.944H157.472V411H159.012V407.864H161.616V411H163.156V403.944H161.616V406.646ZM165.44 404.742C164.866 405.372 164.572 406.282 164.572 407.472C164.572 408.662 164.866 409.558 165.44 410.188C166.014 410.818 166.756 411.14 167.652 411.14C168.548 411.14 169.29 410.818 169.864 410.188C170.438 409.558 170.732 408.662 170.732 407.472C170.732 406.282 170.438 405.372 169.864 404.742C169.29 404.112 168.548 403.804 167.652 403.804C166.756 403.804 166.014 404.112 165.44 404.742ZM166.63 409.32C166.364 408.914 166.238 408.298 166.238 407.472C166.238 406.646 166.364 406.03 166.63 405.624C166.882 405.218 167.218 405.022 167.652 405.022C168.086 405.022 168.422 405.218 168.688 405.624C168.94 406.03 169.066 406.646 169.066 407.472C169.066 408.298 168.94 408.914 168.688 409.32C168.422 409.726 168.086 409.922 167.652 409.922C167.218 409.922 166.882 409.726 166.63 409.32ZM179.504 407.374C180.022 407.052 180.274 406.562 180.274 405.932C180.274 404.686 179.364 403.944 177.81 403.944H175.122V405.05V407.962V411H178.09C179.658 411 180.568 410.258 180.568 408.956C180.568 408.242 180.218 407.71 179.504 407.374ZM177.628 405.05C178.356 405.05 178.706 405.302 178.706 405.96C178.706 406.646 178.37 406.912 177.628 406.912H176.606V405.05H177.628ZM176.606 409.894V407.962H177.894C178.664 407.962 179 408.214 179 408.872C179 409.558 178.636 409.894 177.894 409.894H176.606ZM187.109 409.936C186.731 409.936 186.633 409.656 186.633 409.04V406.324C186.633 404.644 185.821 403.804 184.183 403.804C183.441 403.804 182.769 403.944 182.167 404.224V405.596C182.797 405.218 183.399 405.036 183.973 405.036C184.715 405.036 185.149 405.4 185.149 406.464V406.758C184.925 406.744 184.757 406.73 184.645 406.73C182.685 406.73 181.467 407.724 181.467 409.222C181.467 410.412 182.223 411.14 183.399 411.14C184.225 411.14 184.883 410.734 185.373 409.936C185.485 410.608 186.003 411.14 186.745 411.14C186.969 411.14 187.165 411.112 187.333 411.056V409.908C187.263 409.922 187.179 409.936 187.109 409.936ZM183.777 409.992C183.315 409.992 183.007 409.656 183.007 409.026C183.007 408.284 183.567 407.71 184.673 407.71C184.771 407.71 184.925 407.724 185.149 407.738V408.284C185.149 409.292 184.491 409.992 183.777 409.992ZM195.982 409.782H193.812V403.944H192.272V409.782H190.088V403.944H188.548V411H188.688H192.272H195.982H197.522V403.944H195.982V409.782ZM202.036 409.922C201.182 409.922 200.622 409.138 200.622 407.5H204.752C204.752 405.036 203.814 403.804 201.952 403.804C201.098 403.804 200.384 404.126 199.81 404.784C199.236 405.442 198.956 406.338 198.956 407.472C198.956 408.662 199.25 409.558 199.824 410.188C200.398 410.818 201.14 411.14 202.036 411.14C203.45 411.14 204.514 410.272 204.668 408.76H203.212C203.1 409.544 202.596 409.922 202.036 409.922ZM201.952 404.924C202.68 404.924 203.03 405.61 203.086 406.506H200.692C200.86 405.456 201.28 404.924 201.952 404.924ZM212.693 408.144L210.355 403.944H209.151V411H210.649V407.01L212.441 410.188H212.945L214.737 407.01V411H216.235V403.944H215.045L212.693 408.144ZM222.196 406.646H219.592V403.944H218.052V411H219.592V407.864H222.196V411H223.736V403.944H222.196V406.646ZM228.232 409.922C227.378 409.922 226.818 409.138 226.818 407.5H230.948C230.948 405.036 230.01 403.804 228.148 403.804C227.294 403.804 226.58 404.126 226.006 404.784C225.432 405.442 225.152 406.338 225.152 407.472C225.152 408.662 225.446 409.558 226.02 410.188C226.594 410.818 227.336 411.14 228.232 411.14C229.646 411.14 230.71 410.272 230.864 408.76H229.408C229.296 409.544 228.792 409.922 228.232 409.922ZM228.148 404.924C228.876 404.924 229.226 405.61 229.282 406.506H226.888C227.056 405.456 227.476 404.924 228.148 404.924ZM236.51 406.646H233.906V403.944H232.366V411H233.906V407.864H236.51V411H238.05V403.944H236.51V406.646ZM241.398 408.508V403.944H239.858V411H241.062L244.002 406.436V411H245.542V403.944H244.338L241.398 408.508ZM250.038 409.922C249.184 409.922 248.624 409.138 248.624 407.5H252.754C252.754 405.036 251.816 403.804 249.954 403.804C249.1 403.804 248.386 404.126 247.812 404.784C247.238 405.442 246.958 406.338 246.958 407.472C246.958 408.662 247.252 409.558 247.826 410.188C248.4 410.818 249.142 411.14 250.038 411.14C251.452 411.14 252.516 410.272 252.67 408.76H251.214C251.102 409.544 250.598 409.922 250.038 409.922ZM249.954 404.924C250.682 404.924 251.032 405.61 251.088 406.506H248.694C248.862 405.456 249.282 404.924 249.954 404.924Z" fill="#E44256"/>
<defs>
<filter id="filter0_ddddii_105_588" x="-115.8" y="-36.3508" width="532.955" height="537.905" filterUnits="userSpaceOnUse" color-interpolation-filters="sRGB">
<feFlood flood-opacity="0" result="BackgroundImageFix"/>
<feColorMatrix in="SourceAlpha" type="matrix" values="0 0 0 0 0 0 0 0 0 0 0 0 0 0 0 0 0 0 127 0" result="hardAlpha"/>
<feOffset dx="78.1174" dy="78.1174"/>
<feGaussianBlur stdDeviation="97.8765"/>
<feColorMatrix type="matrix" values="0 0 0 0 0.211765 0 0 0 0 0.509804 0 0 0 0 0.388235 0 0 0 0.9 0"/>
<feBlend mode="normal" in2="BackgroundImageFix" result="effect1_dropShadow_105_588"/>
<feColorMatrix in="SourceAlpha" type="matrix" values="0 0 0 0 0 0 0 0 0 0 0 0 0 0 0 0 0 0 127 0" result="hardAlpha"/>
<feOffset dx="-78.1174" dy="-78.1174"/>
<feGaussianBlur stdDeviation="78.1174"/>
<feColorMatrix type="matrix" values="0 0 0 0 0.376471 0 0 0 0 0.909804 0 0 0 0 0.686275 0 0 0 0.9 0"/>
<feBlend mode="normal" in2="effect1_dropShadow_105_588" result="effect2_dropShadow_105_588"/>
<feColorMatrix in="SourceAlpha" type="matrix" values="0 0 0 0 0 0 0 0 0 0 0 0 0 0 0 0 0 0 127 0" result="hardAlpha"/>
<feOffset dx="78.1174" dy="-78.1174"/>
<feGaussianBlur stdDeviation="78.1174"/>
<feColorMatrix type="matrix" values="0 0 0 0 0.211765 0 0 0 0 0.509804 0 0 0 0 0.388235 0 0 0 0.2 0"/>
<feBlend mode="normal" in2="effect2_dropShadow_105_588" result="effect3_dropShadow_105_588"/>
<feColorMatrix in="SourceAlpha" type="matrix" values="0 0 0 0 0 0 0 0 0 0 0 0 0 0 0 0 0 0 127 0" result="hardAlpha"/>
<feOffset dx="-78.1174" dy="78.1174"/>
<feGaussianBlur stdDeviation="78.1174"/>
<feColorMatrix type="matrix" values="0 0 0 0 0.211765 0 0 0 0 0.509804 0 0 0 0 0.388235 0 0 0 0.2 0"/>
<feBlend mode="normal" in2="effect3_dropShadow_105_588" result="effect4_dropShadow_105_588"/>
<feBlend mode="normal" in="SourceGraphic" in2="effect4_dropShadow_105_588" result="shape"/>
<feColorMatrix in="SourceAlpha" type="matrix" values="0 0 0 0 0 0 0 0 0 0 0 0 0 0 0 0 0 0 127 0" result="hardAlpha"/>
<feOffset dx="-2.75709" dy="-2.75709"/>
<feGaussianBlur stdDeviation="1.83806"/>
<feComposite in2="hardAlpha" operator="arithmetic" k2="-1" k3="1"/>
<feColorMatrix type="matrix" values="0 0 0 0 0.211765 0 0 0 0 0.509804 0 0 0 0 0.388235 0 0 0 0.5 0"/>
<feBlend mode="normal" in2="shape" result="effect5_innerShadow_105_588"/>
<feColorMatrix in="SourceAlpha" type="matrix" values="0 0 0 0 0 0 0 0 0 0 0 0 0 0 0 0 0 0 127 0" result="hardAlpha"/>
<feOffset dx="2.75709" dy="2.75709"/>
<feGaussianBlur stdDeviation="1.83806"/>
<feComposite in2="hardAlpha" operator="arithmetic" k2="-1" k3="1"/>
<feColorMatrix type="matrix" values="0 0 0 0 0.376471 0 0 0 0 0.909804 0 0 0 0 0.686275 0 0 0 0.3 0"/>
<feBlend mode="normal" in2="effect5_innerShadow_105_588" result="effect6_innerShadow_105_588"/>
</filter>
<filter id="filter1_ddddii_105_588" x="-103.471" y="-39.0052" width="529.046" height="537.617" filterUnits="userSpaceOnUse" color-interpolation-filters="sRGB">
<feFlood flood-opacity="0" result="BackgroundImageFix"/>
<feColorMatrix in="SourceAlpha" type="matrix" values="0 0 0 0 0 0 0 0 0 0 0 0 0 0 0 0 0 0 127 0" result="hardAlpha"/>
<feOffset dx="79.9555" dy="79.9555"/>
<feGaussianBlur stdDeviation="100.174"/>
<feColorMatrix type="matrix" values="0 0 0 0 0.211765 0 0 0 0 0.509804 0 0 0 0 0.388235 0 0 0 0.9 0"/>
<feBlend mode="normal" in2="BackgroundImageFix" result="effect1_dropShadow_105_588"/>
<feColorMatrix in="SourceAlpha" type="matrix" values="0 0 0 0 0 0 0 0 0 0 0 0 0 0 0 0 0 0 127 0" result="hardAlpha"/>
<feOffset dx="-79.9555" dy="-79.9555"/>
<feGaussianBlur stdDeviation="79.9555"/>
<feColorMatrix type="matrix" values="0 0 0 0 0.376471 0 0 0 0 0.909804 0 0 0 0 0.686275 0 0 0 0.9 0"/>
<feBlend mode="normal" in2="effect1_dropShadow_105_588" result="effect2_dropShadow_105_588"/>
<feColorMatrix in="SourceAlpha" type="matrix" values="0 0 0 0 0 0 0 0 0 0 0 0 0 0 0 0 0 0 127 0" result="hardAlpha"/>
<feOffset dx="79.9555" dy="-79.9555"/>
<feGaussianBlur stdDeviation="79.9555"/>
<feColorMatrix type="matrix" values="0 0 0 0 0.211765 0 0 0 0 0.509804 0 0 0 0 0.388235 0 0 0 0.2 0"/>
<feBlend mode="normal" in2="effect2_dropShadow_105_588" result="effect3_dropShadow_105_588"/>
<feColorMatrix in="SourceAlpha" type="matrix" values="0 0 0 0 0 0 0 0 0 0 0 0 0 0 0 0 0 0 127 0" result="hardAlpha"/>
<feOffset dx="-79.9555" dy="79.9555"/>
<feGaussianBlur stdDeviation="79.9555"/>
<feColorMatrix type="matrix" values="0 0 0 0 0.211765 0 0 0 0 0.509804 0 0 0 0 0.388235 0 0 0 0.2 0"/>
<feBlend mode="normal" in2="effect3_dropShadow_105_588" result="effect4_dropShadow_105_588"/>
<feBlend mode="normal" in="SourceGraphic" in2="effect4_dropShadow_105_588" result="shape"/>
<feColorMatrix in="SourceAlpha" type="matrix" values="0 0 0 0 0 0 0 0 0 0 0 0 0 0 0 0 0 0 127 0" result="hardAlpha"/>
<feOffset dx="-2.75709" dy="-2.75709"/>
<feGaussianBlur stdDeviation="1.83806"/>
<feComposite in2="hardAlpha" operator="arithmetic" k2="-1" k3="1"/>
<feColorMatrix type="matrix" values="0 0 0 0 0.211765 0 0 0 0 0.509804 0 0 0 0 0.388235 0 0 0 0.5 0"/>
<feBlend mode="normal" in2="shape" result="effect5_innerShadow_105_588"/>
<feColorMatrix in="SourceAlpha" type="matrix" values="0 0 0 0 0 0 0 0 0 0 0 0 0 0 0 0 0 0 127 0" result="hardAlpha"/>
<feOffset dx="2.75709" dy="2.75709"/>
<feGaussianBlur stdDeviation="1.83806"/>
<feComposite in2="hardAlpha" operator="arithmetic" k2="-1" k3="1"/>
<feColorMatrix type="matrix" values="0 0 0 0 0.376471 0 0 0 0 0.909804 0 0 0 0 0.686275 0 0 0 0.3 0"/>
<feBlend mode="normal" in2="effect5_innerShadow_105_588" result="effect6_innerShadow_105_588"/>
</filter>
<filter id="filter2_ddddii_105_588" x="-46.5097" y="-15.2878" width="478.257" height="480.155" filterUnits="userSpaceOnUse" color-interpolation-filters="sRGB">
<feFlood flood-opacity="0" result="BackgroundImageFix"/>
<feColorMatrix in="SourceAlpha" type="matrix" values="0 0 0 0 0 0 0 0 0 0 0 0 0 0 0 0 0 0 127 0" result="hardAlpha"/>
<feOffset dx="71.6842" dy="71.6842"/>
<feGaussianBlur stdDeviation="89.6053"/>
<feColorMatrix type="matrix" values="0 0 0 0 0.733333 0 0 0 0 0.733333 0 0 0 0 0.733333 0 0 0 0.9 0"/>
<feBlend mode="normal" in2="BackgroundImageFix" result="effect1_dropShadow_105_588"/>
<feColorMatrix in="SourceAlpha" type="matrix" values="0 0 0 0 0 0 0 0 0 0 0 0 0 0 0 0 0 0 127 0" result="hardAlpha"/>
<feOffset dx="-71.6842" dy="-71.6842"/>
<feGaussianBlur stdDeviation="71.6842"/>
<feColorMatrix type="matrix" values="0 0 0 0 1 0 0 0 0 1 0 0 0 0 1 0 0 0 0.9 0"/>
<feBlend mode="normal" in2="effect1_dropShadow_105_588" result="effect2_dropShadow_105_588"/>
<feColorMatrix in="SourceAlpha" type="matrix" values="0 0 0 0 0 0 0 0 0 0 0 0 0 0 0 0 0 0 127 0" result="hardAlpha"/>
<feOffset dx="71.6842" dy="-71.6842"/>
<feGaussianBlur stdDeviation="71.6842"/>
<feColorMatrix type="matrix" values="0 0 0 0 0.733333 0 0 0 0 0.733333 0 0 0 0 0.733333 0 0 0 0.2 0"/>
<feBlend mode="normal" in2="effect2_dropShadow_105_588" result="effect3_dropShadow_105_588"/>
<feColorMatrix in="SourceAlpha" type="matrix" values="0 0 0 0 0 0 0 0 0 0 0 0 0 0 0 0 0 0 127 0" result="hardAlpha"/>
<feOffset dx="-71.6842" dy="71.6842"/>
<feGaussianBlur stdDeviation="71.6842"/>
<feColorMatrix type="matrix" values="0 0 0 0 0.733333 0 0 0 0 0.733333 0 0 0 0 0.733333 0 0 0 0.2 0"/>
<feBlend mode="normal" in2="effect3_dropShadow_105_588" result="effect4_dropShadow_105_588"/>
<feBlend mode="normal" in="SourceGraphic" in2="effect4_dropShadow_105_588" result="shape"/>
<feColorMatrix in="SourceAlpha" type="matrix" values="0 0 0 0 0 0 0 0 0 0 0 0 0 0 0 0 0 0 127 0" result="hardAlpha"/>
<feOffset dx="-2.75709" dy="-2.75709"/>
<feGaussianBlur stdDeviation="1.83806"/>
<feComposite in2="hardAlpha" operator="arithmetic" k2="-1" k3="1"/>
<feColorMatrix type="matrix" values="0 0 0 0 0.733333 0 0 0 0 0.733333 0 0 0 0 0.733333 0 0 0 0.5 0"/>
<feBlend mode="normal" in2="shape" result="effect5_innerShadow_105_588"/>
<feColorMatrix in="SourceAlpha" type="matrix" values="0 0 0 0 0 0 0 0 0 0 0 0 0 0 0 0 0 0 127 0" result="hardAlpha"/>
<feOffset dx="2.75709" dy="2.75709"/>
<feGaussianBlur stdDeviation="1.83806"/>
<feComposite in2="hardAlpha" operator="arithmetic" k2="-1" k3="1"/>
<feColorMatrix type="matrix" values="0 0 0 0 1 0 0 0 0 1 0 0 0 0 1 0 0 0 0.3 0"/>
<feBlend mode="normal" in2="effect5_innerShadow_105_588" result="effect6_innerShadow_105_588"/>
</filter>
<filter id="filter3_ddddii_105_588" x="-150.218" y="-72.0418" width="538.303" height="554.18" filterUnits="userSpaceOnUse" color-interpolation-filters="sRGB">
<feFlood flood-opacity="0" result="BackgroundImageFix"/>
<feColorMatrix in="SourceAlpha" type="matrix" values="0 0 0 0 0 0 0 0 0 0 0 0 0 0 0 0 0 0 127 0" result="hardAlpha"/>
<feOffset dx="77.1984" dy="77.1984"/>
<feGaussianBlur stdDeviation="96.498"/>
<feColorMatrix type="matrix" values="0 0 0 0 0.713726 0 0 0 0 0.603922 0 0 0 0 0.454902 0 0 0 0.9 0"/>
<feBlend mode="normal" in2="BackgroundImageFix" result="effect1_dropShadow_105_588"/>
<feColorMatrix in="SourceAlpha" type="matrix" values="0 0 0 0 0 0 0 0 0 0 0 0 0 0 0 0 0 0 127 0" result="hardAlpha"/>
<feOffset dx="-77.1984" dy="-77.1984"/>
<feGaussianBlur stdDeviation="77.1984"/>
<feColorMatrix type="matrix" values="0 0 0 0 1 0 0 0 0 1 0 0 0 0 0.792157 0 0 0 0.9 0"/>
<feBlend mode="normal" in2="effect1_dropShadow_105_588" result="effect2_dropShadow_105_588"/>
<feColorMatrix in="SourceAlpha" type="matrix" values="0 0 0 0 0 0 0 0 0 0 0 0 0 0 0 0 0 0 127 0" result="hardAlpha"/>
<feOffset dx="77.1984" dy="-77.1984"/>
<feGaussianBlur stdDeviation="77.1984"/>
<feColorMatrix type="matrix" values="0 0 0 0 0.713726 0 0 0 0 0.603922 0 0 0 0 0.454902 0 0 0 0.2 0"/>
<feBlend mode="normal" in2="effect2_dropShadow_105_588" result="effect3_dropShadow_105_588"/>
<feColorMatrix in="SourceAlpha" type="matrix" values="0 0 0 0 0 0 0 0 0 0 0 0 0 0 0 0 0 0 127 0" result="hardAlpha"/>
<feOffset dx="-77.1984" dy="77.1984"/>
<feGaussianBlur stdDeviation="77.1984"/>
<feColorMatrix type="matrix" values="0 0 0 0 0.713726 0 0 0 0 0.603922 0 0 0 0 0.454902 0 0 0 0.2 0"/>
<feBlend mode="normal" in2="effect3_dropShadow_105_588" result="effect4_dropShadow_105_588"/>
<feBlend mode="normal" in="SourceGraphic" in2="effect4_dropShadow_105_588" result="shape"/>
<feColorMatrix in="SourceAlpha" type="matrix" values="0 0 0 0 0 0 0 0 0 0 0 0 0 0 0 0 0 0 127 0" result="hardAlpha"/>
<feOffset dx="-2.75709" dy="-2.75709"/>
<feGaussianBlur stdDeviation="1.83806"/>
<feComposite in2="hardAlpha" operator="arithmetic" k2="-1" k3="1"/>
<feColorMatrix type="matrix" values="0 0 0 0 0.713726 0 0 0 0 0.603922 0 0 0 0 0.454902 0 0 0 0.5 0"/>
<feBlend mode="normal" in2="shape" result="effect5_innerShadow_105_588"/>
<feColorMatrix in="SourceAlpha" type="matrix" values="0 0 0 0 0 0 0 0 0 0 0 0 0 0 0 0 0 0 127 0" result="hardAlpha"/>
<feOffset dx="2.75709" dy="2.75709"/>
<feGaussianBlur stdDeviation="1.83806"/>
<feComposite in2="hardAlpha" operator="arithmetic" k2="-1" k3="1"/>
<feColorMatrix type="matrix" values="0 0 0 0 1 0 0 0 0 1 0 0 0 0 0.792157 0 0 0 0.3 0"/>
<feBlend mode="normal" in2="effect5_innerShadow_105_588" result="effect6_innerShadow_105_588"/>
</filter>
<filter id="filter4_ddddii_105_588" x="-158.41" y="-36.9646" width="532.741" height="526.43" filterUnits="userSpaceOnUse" color-interpolation-filters="sRGB">
<feFlood flood-opacity="0" result="BackgroundImageFix"/>
<feColorMatrix in="SourceAlpha" type="matrix" values="0 0 0 0 0 0 0 0 0 0 0 0 0 0 0 0 0 0 127 0" result="hardAlpha"/>
<feOffset dx="77.1984" dy="77.1984"/>
<feGaussianBlur stdDeviation="96.498"/>
<feColorMatrix type="matrix" values="0 0 0 0 0.243137 0 0 0 0 0.356863 0 0 0 0 0.52549 0 0 0 0.9 0"/>
<feBlend mode="normal" in2="BackgroundImageFix" result="effect1_dropShadow_105_588"/>
<feColorMatrix in="SourceAlpha" type="matrix" values="0 0 0 0 0 0 0 0 0 0 0 0 0 0 0 0 0 0 127 0" result="hardAlpha"/>
<feOffset dx="-77.1984" dy="-77.1984"/>
<feGaussianBlur stdDeviation="77.1984"/>
<feColorMatrix type="matrix" values="0 0 0 0 0.423529 0 0 0 0 0.623529 0 0 0 0 0.909804 0 0 0 0.9 0"/>
<feBlend mode="normal" in2="effect1_dropShadow_105_588" result="effect2_dropShadow_105_588"/>
<feColorMatrix in="SourceAlpha" type="matrix" values="0 0 0 0 0 0 0 0 0 0 0 0 0 0 0 0 0 0 127 0" result="hardAlpha"/>
<feOffset dx="77.1984" dy="-77.1984"/>
<feGaussianBlur stdDeviation="77.1984"/>
<feColorMatrix type="matrix" values="0 0 0 0 0.243137 0 0 0 0 0.356863 0 0 0 0 0.52549 0 0 0 0.2 0"/>
<feBlend mode="normal" in2="effect2_dropShadow_105_588" result="effect3_dropShadow_105_588"/>
<feColorMatrix in="SourceAlpha" type="matrix" values="0 0 0 0 0 0 0 0 0 0 0 0 0 0 0 0 0 0 127 0" result="hardAlpha"/>
<feOffset dx="-77.1984" dy="77.1984"/>
<feGaussianBlur stdDeviation="77.1984"/>
<feColorMatrix type="matrix" values="0 0 0 0 0.243137 0 0 0 0 0.356863 0 0 0 0 0.52549 0 0 0 0.2 0"/>
<feBlend mode="normal" in2="effect3_dropShadow_105_588" result="effect4_dropShadow_105_588"/>
<feBlend mode="normal" in="SourceGraphic" in2="effect4_dropShadow_105_588" result="shape"/>
<feColorMatrix in="SourceAlpha" type="matrix" values="0 0 0 0 0 0 0 0 0 0 0 0 0 0 0 0 0 0 127 0" result="hardAlpha"/>
<feOffset dx="-2.75709" dy="-2.75709"/>
<feGaussianBlur stdDeviation="1.83806"/>
<feComposite in2="hardAlpha" operator="arithmetic" k2="-1" k3="1"/>
<feColorMatrix type="matrix" values="0 0 0 0 0.243137 0 0 0 0 0.356863 0 0 0 0 0.52549 0 0 0 0.5 0"/>
<feBlend mode="normal" in2="shape" result="effect5_innerShadow_105_588"/>
<feColorMatrix in="SourceAlpha" type="matrix" values="0 0 0 0 0 0 0 0 0 0 0 0 0 0 0 0 0 0 127 0" result="hardAlpha"/>
<feOffset dx="2.75709" dy="2.75709"/>
<feGaussianBlur stdDeviation="1.83806"/>
<feComposite in2="hardAlpha" operator="arithmetic" k2="-1" k3="1"/>
<feColorMatrix type="matrix" values="0 0 0 0 0.423529 0 0 0 0 0.623529 0 0 0 0 0.909804 0 0 0 0.3 0"/>
<feBlend mode="normal" in2="effect5_innerShadow_105_588" result="effect6_innerShadow_105_588"/>
</filter>
<filter id="filter5_ddddii_105_588" x="-106.56" y="-40.1031" width="554.129" height="559.76" filterUnits="userSpaceOnUse" color-interpolation-filters="sRGB">
<feFlood flood-opacity="0" result="BackgroundImageFix"/>
<feColorMatrix in="SourceAlpha" type="matrix" values="0 0 0 0 0 0 0 0 0 0 0 0 0 0 0 0 0 0 127 0" result="hardAlpha"/>
<feOffset dx="79.9555" dy="79.9555"/>
<feGaussianBlur stdDeviation="100.174"/>
<feColorMatrix type="matrix" values="0 0 0 0 0.713726 0 0 0 0 0.713726 0 0 0 0 0.713726 0 0 0 0.9 0"/>
<feBlend mode="normal" in2="BackgroundImageFix" result="effect1_dropShadow_105_588"/>
<feColorMatrix in="SourceAlpha" type="matrix" values="0 0 0 0 0 0 0 0 0 0 0 0 0 0 0 0 0 0 127 0" result="hardAlpha"/>
<feOffset dx="-79.9555" dy="-79.9555"/>
<feGaussianBlur stdDeviation="79.9555"/>
<feColorMatrix type="matrix" values="0 0 0 0 1 0 0 0 0 1 0 0 0 0 1 0 0 0 0.9 0"/>
<feBlend mode="normal" in2="effect1_dropShadow_105_588" result="effect2_dropShadow_105_588"/>
<feColorMatrix in="SourceAlpha" type="matrix" values="0 0 0 0 0 0 0 0 0 0 0 0 0 0 0 0 0 0 127 0" result="hardAlpha"/>
<feOffset dx="79.9555" dy="-79.9555"/>
<feGaussianBlur stdDeviation="79.9555"/>
<feColorMatrix type="matrix" values="0 0 0 0 0.713726 0 0 0 0 0.713726 0 0 0 0 0.713726 0 0 0 0.2 0"/>
<feBlend mode="normal" in2="effect2_dropShadow_105_588" result="effect3_dropShadow_105_588"/>
<feColorMatrix in="SourceAlpha" type="matrix" values="0 0 0 0 0 0 0 0 0 0 0 0 0 0 0 0 0 0 127 0" result="hardAlpha"/>
<feOffset dx="-79.9555" dy="79.9555"/>
<feGaussianBlur stdDeviation="79.9555"/>
<feColorMatrix type="matrix" values="0 0 0 0 0.713726 0 0 0 0 0.713726 0 0 0 0 0.713726 0 0 0 0.2 0"/>
<feBlend mode="normal" in2="effect3_dropShadow_105_588" result="effect4_dropShadow_105_588"/>
<feBlend mode="normal" in="SourceGraphic" in2="effect4_dropShadow_105_588" result="shape"/>
<feColorMatrix in="SourceAlpha" type="matrix" values="0 0 0 0 0 0 0 0 0 0 0 0 0 0 0 0 0 0 127 0" result="hardAlpha"/>
<feOffset dx="-2.75709" dy="-2.75709"/>
<feGaussianBlur stdDeviation="1.83806"/>
<feComposite in2="hardAlpha" operator="arithmetic" k2="-1" k3="1"/>
<feColorMatrix type="matrix" values="0 0 0 0 0.713726 0 0 0 0 0.713726 0 0 0 0 0.713726 0 0 0 0.5 0"/>
<feBlend mode="normal" in2="shape" result="effect5_innerShadow_105_588"/>
<feColorMatrix in="SourceAlpha" type="matrix" values="0 0 0 0 0 0 0 0 0 0 0 0 0 0 0 0 0 0 127 0" result="hardAlpha"/>
<feOffset dx="2.75709" dy="2.75709"/>
<feGaussianBlur stdDeviation="1.83806"/>
<feComposite in2="hardAlpha" operator="arithmetic" k2="-1" k3="1"/>
<feColorMatrix type="matrix" values="0 0 0 0 1 0 0 0 0 1 0 0 0 0 1 0 0 0 0.3 0"/>
<feBlend mode="normal" in2="effect5_innerShadow_105_588" result="effect6_innerShadow_105_588"/>
</filter>
<filter id="filter6_ddddii_105_588" x="-98.289" y="-31.8304" width="549.336" height="547.764" filterUnits="userSpaceOnUse" color-interpolation-filters="sRGB">
<feFlood flood-opacity="0" result="BackgroundImageFix"/>
<feColorMatrix in="SourceAlpha" type="matrix" values="0 0 0 0 0 0 0 0 0 0 0 0 0 0 0 0 0 0 127 0" result="hardAlpha"/>
<feOffset dx="77.1984" dy="77.1984"/>
<feGaussianBlur stdDeviation="96.498"/>
<feColorMatrix type="matrix" values="0 0 0 0 0.741176 0 0 0 0 0.305882 0 0 0 0 0.364706 0 0 0 0.9 0"/>
<feBlend mode="normal" in2="BackgroundImageFix" result="effect1_dropShadow_105_588"/>
<feColorMatrix in="SourceAlpha" type="matrix" values="0 0 0 0 0 0 0 0 0 0 0 0 0 0 0 0 0 0 127 0" result="hardAlpha"/>
<feOffset dx="-77.1984" dy="-77.1984"/>
<feGaussianBlur stdDeviation="77.1984"/>
<feColorMatrix type="matrix" values="0 0 0 0 1 0 0 0 0 0.52549 0 0 0 0 0.623529 0 0 0 0.9 0"/>
<feBlend mode="normal" in2="effect1_dropShadow_105_588" result="effect2_dropShadow_105_588"/>
<feColorMatrix in="SourceAlpha" type="matrix" values="0 0 0 0 0 0 0 0 0 0 0 0 0 0 0 0 0 0 127 0" result="hardAlpha"/>
<feOffset dx="77.1984" dy="-77.1984"/>
<feGaussianBlur stdDeviation="77.1984"/>
<feColorMatrix type="matrix" values="0 0 0 0 0.741176 0 0 0 0 0.305882 0 0 0 0 0.364706 0 0 0 0.2 0"/>
<feBlend mode="normal" in2="effect2_dropShadow_105_588" result="effect3_dropShadow_105_588"/>
<feColorMatrix in="SourceAlpha" type="matrix" values="0 0 0 0 0 0 0 0 0 0 0 0 0 0 0 0 0 0 127 0" result="hardAlpha"/>
<feOffset dx="-77.1984" dy="77.1984"/>
<feGaussianBlur stdDeviation="77.1984"/>
<feColorMatrix type="matrix" values="0 0 0 0 0.741176 0 0 0 0 0.305882 0 0 0 0 0.364706 0 0 0 0.2 0"/>
<feBlend mode="normal" in2="effect3_dropShadow_105_588" result="effect4_dropShadow_105_588"/>
<feBlend mode="normal" in="SourceGraphic" in2="effect4_dropShadow_105_588" result="shape"/>
<feColorMatrix in="SourceAlpha" type="matrix" values="0 0 0 0 0 0 0 0 0 0 0 0 0 0 0 0 0 0 127 0" result="hardAlpha"/>
<feOffset dx="-2.75709" dy="-2.75709"/>
<feGaussianBlur stdDeviation="1.83806"/>
<feComposite in2="hardAlpha" operator="arithmetic" k2="-1" k3="1"/>
<feColorMatrix type="matrix" values="0 0 0 0 0.741176 0 0 0 0 0.305882 0 0 0 0 0.364706 0 0 0 0.5 0"/>
<feBlend mode="normal" in2="shape" result="effect5_innerShadow_105_588"/>
<feColorMatrix in="SourceAlpha" type="matrix" values="0 0 0 0 0 0 0 0 0 0 0 0 0 0 0 0 0 0 127 0" result="hardAlpha"/>
<feOffset dx="2.75709" dy="2.75709"/>
<feGaussianBlur stdDeviation="1.83806"/>
<feComposite in2="hardAlpha" operator="arithmetic" k2="-1" k3="1"/>
<feColorMatrix type="matrix" values="0 0 0 0 1 0 0 0 0 0.52549 0 0 0 0 0.623529 0 0 0 0.3 0"/>
<feBlend mode="normal" in2="effect5_innerShadow_105_588" result="effect6_innerShadow_105_588"/>
</filter>
<filter id="filter7_ddddii_105_588" x="-100.538" y="-0.750511" width="537.123" height="533.563" filterUnits="userSpaceOnUse" color-interpolation-filters="sRGB">
<feFlood flood-opacity="0" result="BackgroundImageFix"/>
<feColorMatrix in="SourceAlpha" type="matrix" values="0 0 0 0 0 0 0 0 0 0 0 0 0 0 0 0 0 0 127 0" result="hardAlpha"/>
<feOffset dx="77.1984" dy="77.1984"/>
<feGaussianBlur stdDeviation="96.498"/>
<feColorMatrix type="matrix" values="0 0 0 0 0.713726 0 0 0 0 0.603922 0 0 0 0 0.454902 0 0 0 0.9 0"/>
<feBlend mode="normal" in2="BackgroundImageFix" result="effect1_dropShadow_105_588"/>
<feColorMatrix in="SourceAlpha" type="matrix" values="0 0 0 0 0 0 0 0 0 0 0 0 0 0 0 0 0 0 127 0" result="hardAlpha"/>
<feOffset dx="-77.1984" dy="-77.1984"/>
<feGaussianBlur stdDeviation="77.1984"/>
<feColorMatrix type="matrix" values="0 0 0 0 1 0 0 0 0 1 0 0 0 0 0.792157 0 0 0 0.9 0"/>
<feBlend mode="normal" in2="effect1_dropShadow_105_588" result="effect2_dropShadow_105_588"/>
<feColorMatrix in="SourceAlpha" type="matrix" values="0 0 0 0 0 0 0 0 0 0 0 0 0 0 0 0 0 0 127 0" result="hardAlpha"/>
<feOffset dx="77.1984" dy="-77.1984"/>
<feGaussianBlur stdDeviation="77.1984"/>
<feColorMatrix type="matrix" values="0 0 0 0 0.713726 0 0 0 0 0.603922 0 0 0 0 0.454902 0 0 0 0.2 0"/>
<feBlend mode="normal" in2="effect2_dropShadow_105_588" result="effect3_dropShadow_105_588"/>
<feColorMatrix in="SourceAlpha" type="matrix" values="0 0 0 0 0 0 0 0 0 0 0 0 0 0 0 0 0 0 127 0" result="hardAlpha"/>
<feOffset dx="-77.1984" dy="77.1984"/>
<feGaussianBlur stdDeviation="77.1984"/>
<feColorMatrix type="matrix" values="0 0 0 0 0.713726 0 0 0 0 0.603922 0 0 0 0 0.454902 0 0 0 0.2 0"/>
<feBlend mode="normal" in2="effect3_dropShadow_105_588" result="effect4_dropShadow_105_588"/>
<feBlend mode="normal" in="SourceGraphic" in2="effect4_dropShadow_105_588" result="shape"/>
<feColorMatrix in="SourceAlpha" type="matrix" values="0 0 0 0 0 0 0 0 0 0 0 0 0 0 0 0 0 0 127 0" result="hardAlpha"/>
<feOffset dx="-2.75709" dy="-2.75709"/>
<feGaussianBlur stdDeviation="1.83806"/>
<feComposite in2="hardAlpha" operator="arithmetic" k2="-1" k3="1"/>
<feColorMatrix type="matrix" values="0 0 0 0 0.713726 0 0 0 0 0.603922 0 0 0 0 0.454902 0 0 0 0.5 0"/>
<feBlend mode="normal" in2="shape" result="effect5_innerShadow_105_588"/>
<feColorMatrix in="SourceAlpha" type="matrix" values="0 0 0 0 0 0 0 0 0 0 0 0 0 0 0 0 0 0 127 0" result="hardAlpha"/>
<feOffset dx="2.75709" dy="2.75709"/>
<feGaussianBlur stdDeviation="1.83806"/>
<feComposite in2="hardAlpha" operator="arithmetic" k2="-1" k3="1"/>
<feColorMatrix type="matrix" values="0 0 0 0 1 0 0 0 0 1 0 0 0 0 0.792157 0 0 0 0.3 0"/>
<feBlend mode="normal" in2="effect5_innerShadow_105_588" result="effect6_innerShadow_105_588"/>
</filter>
<filter id="filter8_ddddii_105_588" x="-163.89" y="-15.3448" width="567.391" height="589.378" filterUnits="userSpaceOnUse" color-interpolation-filters="sRGB">
<feFlood flood-opacity="0" result="BackgroundImageFix"/>
<feColorMatrix in="SourceAlpha" type="matrix" values="0 0 0 0 0 0 0 0 0 0 0 0 0 0 0 0 0 0 127 0" result="hardAlpha"/>
<feOffset dx="77.1984" dy="77.1984"/>
<feGaussianBlur stdDeviation="96.498"/>
<feColorMatrix type="matrix" values="0 0 0 0 0.65098 0 0 0 0 0.188235 0 0 0 0 0.247059 0 0 0 0.9 0"/>
<feBlend mode="normal" in2="BackgroundImageFix" result="effect1_dropShadow_105_588"/>
<feColorMatrix in="SourceAlpha" type="matrix" values="0 0 0 0 0 0 0 0 0 0 0 0 0 0 0 0 0 0 127 0" result="hardAlpha"/>
<feOffset dx="-77.1984" dy="-77.1984"/>
<feGaussianBlur stdDeviation="77.1984"/>
<feColorMatrix type="matrix" values="0 0 0 0 1 0 0 0 0 0.329412 0 0 0 0 0.427451 0 0 0 0.9 0"/>
<feBlend mode="normal" in2="effect1_dropShadow_105_588" result="effect2_dropShadow_105_588"/>
<feColorMatrix in="SourceAlpha" type="matrix" values="0 0 0 0 0 0 0 0 0 0 0 0 0 0 0 0 0 0 127 0" result="hardAlpha"/>
<feOffset dx="77.1984" dy="-77.1984"/>
<feGaussianBlur stdDeviation="77.1984"/>
<feColorMatrix type="matrix" values="0 0 0 0 0.65098 0 0 0 0 0.188235 0 0 0 0 0.247059 0 0 0 0.2 0"/>
<feBlend mode="normal" in2="effect2_dropShadow_105_588" result="effect3_dropShadow_105_588"/>
<feColorMatrix in="SourceAlpha" type="matrix" values="0 0 0 0 0 0 0 0 0 0 0 0 0 0 0 0 0 0 127 0" result="hardAlpha"/>
<feOffset dx="-77.1984" dy="77.1984"/>
<feGaussianBlur stdDeviation="77.1984"/>
<feColorMatrix type="matrix" values="0 0 0 0 0.65098 0 0 0 0 0.188235 0 0 0 0 0.247059 0 0 0 0.2 0"/>
<feBlend mode="normal" in2="effect3_dropShadow_105_588" result="effect4_dropShadow_105_588"/>
<feBlend mode="normal" in="SourceGraphic" in2="effect4_dropShadow_105_588" result="shape"/>
<feColorMatrix in="SourceAlpha" type="matrix" values="0 0 0 0 0 0 0 0 0 0 0 0 0 0 0 0 0 0 127 0" result="hardAlpha"/>
<feOffset dx="-2.75709" dy="-2.75709"/>
<feGaussianBlur stdDeviation="1.83806"/>
<feComposite in2="hardAlpha" operator="arithmetic" k2="-1" k3="1"/>
<feColorMatrix type="matrix" values="0 0 0 0 0.65098 0 0 0 0 0.188235 0 0 0 0 0.247059 0 0 0 0.5 0"/>
<feBlend mode="normal" in2="shape" result="effect5_innerShadow_105_588"/>
<feColorMatrix in="SourceAlpha" type="matrix" values="0 0 0 0 0 0 0 0 0 0 0 0 0 0 0 0 0 0 127 0" result="hardAlpha"/>
<feOffset dx="2.75709" dy="2.75709"/>
<feGaussianBlur stdDeviation="1.83806"/>
<feComposite in2="hardAlpha" operator="arithmetic" k2="-1" k3="1"/>
<feColorMatrix type="matrix" values="0 0 0 0 1 0 0 0 0 0.329412 0 0 0 0 0.427451 0 0 0 0.3 0"/>
<feBlend mode="normal" in2="effect5_innerShadow_105_588" result="effect6_innerShadow_105_588"/>
</filter>
<filter id="filter9_ddddii_105_588" x="-113.955" y="-28.3112" width="515.964" height="531.326" filterUnits="userSpaceOnUse" color-interpolation-filters="sRGB">
<feFlood flood-opacity="0" result="BackgroundImageFix"/>
<feColorMatrix in="SourceAlpha" type="matrix" values="0 0 0 0 0 0 0 0 0 0 0 0 0 0 0 0 0 0 127 0" result="hardAlpha"/>
<feOffset dx="77.1984" dy="77.1984"/>
<feGaussianBlur stdDeviation="96.498"/>
<feColorMatrix type="matrix" values="0 0 0 0 0.721569 0 0 0 0 0.611765 0 0 0 0 0.462745 0 0 0 0.9 0"/>
<feBlend mode="normal" in2="BackgroundImageFix" result="effect1_dropShadow_105_588"/>
<feColorMatrix in="SourceAlpha" type="matrix" values="0 0 0 0 0 0 0 0 0 0 0 0 0 0 0 0 0 0 127 0" result="hardAlpha"/>
<feOffset dx="-77.1984" dy="-77.1984"/>
<feGaussianBlur stdDeviation="77.1984"/>
<feColorMatrix type="matrix" values="0 0 0 0 1 0 0 0 0 1 0 0 0 0 0.784314 0 0 0 0.9 0"/>
<feBlend mode="normal" in2="effect1_dropShadow_105_588" result="effect2_dropShadow_105_588"/>
<feColorMatrix in="SourceAlpha" type="matrix" values="0 0 0 0 0 0 0 0 0 0 0 0 0 0 0 0 0 0 127 0" result="hardAlpha"/>
<feOffset dx="77.1984" dy="-77.1984"/>
<feGaussianBlur stdDeviation="77.1984"/>
<feColorMatrix type="matrix" values="0 0 0 0 0.721569 0 0 0 0 0.611765 0 0 0 0 0.462745 0 0 0 0.2 0"/>
<feBlend mode="normal" in2="effect2_dropShadow_105_588" result="effect3_dropShadow_105_588"/>
<feColorMatrix in="SourceAlpha" type="matrix" values="0 0 0 0 0 0 0 0 0 0 0 0 0 0 0 0 0 0 127 0" result="hardAlpha"/>
<feOffset dx="-77.1984" dy="77.1984"/>
<feGaussianBlur stdDeviation="77.1984"/>
<feColorMatrix type="matrix" values="0 0 0 0 0.721569 0 0 0 0 0.611765 0 0 0 0 0.462745 0 0 0 0.2 0"/>
<feBlend mode="normal" in2="effect3_dropShadow_105_588" result="effect4_dropShadow_105_588"/>
<feBlend mode="normal" in="SourceGraphic" in2="effect4_dropShadow_105_588" result="shape"/>
<feColorMatrix in="SourceAlpha" type="matrix" values="0 0 0 0 0 0 0 0 0 0 0 0 0 0 0 0 0 0 127 0" result="hardAlpha"/>
<feOffset dx="-2.75709" dy="-2.75709"/>
<feGaussianBlur stdDeviation="1.83806"/>
<feComposite in2="hardAlpha" operator="arithmetic" k2="-1" k3="1"/>
<feColorMatrix type="matrix" values="0 0 0 0 0.721569 0 0 0 0 0.611765 0 0 0 0 0.462745 0 0 0 0.5 0"/>
<feBlend mode="normal" in2="shape" result="effect5_innerShadow_105_588"/>
<feColorMatrix in="SourceAlpha" type="matrix" values="0 0 0 0 0 0 0 0 0 0 0 0 0 0 0 0 0 0 127 0" result="hardAlpha"/>
<feOffset dx="2.75709" dy="2.75709"/>
<feGaussianBlur stdDeviation="1.83806"/>
<feComposite in2="hardAlpha" operator="arithmetic" k2="-1" k3="1"/>
<feColorMatrix type="matrix" values="0 0 0 0 1 0 0 0 0 1 0 0 0 0 0.784314 0 0 0 0.3 0"/>
<feBlend mode="normal" in2="effect5_innerShadow_105_588" result="effect6_innerShadow_105_588"/>
</filter>
<radialGradient id="paint0_radial_105_588" cx="0" cy="0" r="1" gradientUnits="userSpaceOnUse" gradientTransform="translate(113.423 10.0975) rotate(90) scale(10.0975 113.423)">
<stop stop-color="#C5C8CC"/>
<stop offset="1" stop-color="#C5C8CC" stop-opacity="0"/>
</radialGradient>
<linearGradient id="paint1_linear_105_588" x1="118.552" y1="227.684" x2="147.748" y2="203.357" gradientUnits="userSpaceOnUse">
<stop stop-color="#4FBE90"/>
<stop offset="1" stop-color="#47AC82"/>
</linearGradient>
<linearGradient id="paint2_linear_105_588" x1="136.395" y1="218.308" x2="150.497" y2="211.134" gradientUnits="userSpaceOnUse">
<stop stop-color="#4FBE90"/>
<stop offset="1" stop-color="#47AC82"/>
</linearGradient>
<linearGradient id="paint3_linear_105_588" x1="168.543" y1="213.972" x2="182.605" y2="201.788" gradientUnits="userSpaceOnUse">
<stop stop-color="white"/>
<stop offset="1" stop-color="#F2F2F2"/>
</linearGradient>
<linearGradient id="paint4_linear_105_588" x1="81.3774" y1="211.944" x2="130.529" y2="177.687" gradientUnits="userSpaceOnUse">
<stop stop-color="#FFDEA7"/>
<stop offset="1" stop-color="#F2C897"/>
</linearGradient>
<linearGradient id="paint5_linear_105_588" x1="73.1848" y1="219.271" x2="97.1982" y2="189.107" gradientUnits="userSpaceOnUse">
<stop stop-color="#5983C0"/>
<stop offset="1" stop-color="#5177AE"/>
</linearGradient>
<linearGradient id="paint6_linear_105_588" x1="133.307" y1="239.353" x2="172.435" y2="205.79" gradientUnits="userSpaceOnUse">
<stop stop-color="white"/>
<stop offset="1" stop-color="#F2F2F2"/>
</linearGradient>
<linearGradient id="paint7_linear_105_588" x1="131.057" y1="262.618" x2="162.652" y2="227.483" gradientUnits="userSpaceOnUse">
<stop stop-color="#FFDEA7"/>
<stop offset="1" stop-color="#F2C897"/>
</linearGradient>
<linearGradient id="paint8_linear_105_588" x1="67.7051" y1="303.839" x2="151.758" y2="240.885" gradientUnits="userSpaceOnUse">
<stop stop-color="#EF455A"/>
<stop offset="1" stop-color="#D93F52"/>
</linearGradient>
<linearGradient id="paint9_linear_105_588" x1="117.64" y1="232.821" x2="140.682" y2="221.764" gradientUnits="userSpaceOnUse">
<stop stop-color="#FFDEA7"/>
<stop offset="1" stop-color="#F2C897"/>
</linearGradient>
</defs>
</svg>
