<svg width="166" height="26" viewBox="0 0 166 26" fill="none" xmlns="http://www.w3.org/2000/svg">
<path d="M20.3325 15.571L17.5681 6.79196H14.0034L18.5179 19.0192C17.8437 20.4834 17.0639 21.0673 14.8682 21.0673V24.0565C19.1277 24.0565 20.8778 22.5924 22.6074 17.7643L26.5297 6.79196H23.1116L20.3296 15.571H20.3325Z" fill="white"/>
<path d="M9.15213 6.74838C9.27818 5.68224 9.74722 3.53252 11.4299 2.08872L9.89086 0C3.2481 2.04805 0 7.31486 0 12.143C0 16.2188 2.31881 19.4782 6.79227 19.4782C10.9257 19.4782 13.6666 17.0525 13.6666 12.6863C13.6666 9.1828 11.8227 7.13185 9.15213 6.74838ZM6.80986 16.6139C4.65814 16.6139 3.43571 14.7111 3.43571 12.1634C3.43571 8.30838 5.37636 5.54861 7.34339 3.70682C6.49912 5.45565 6.00663 7.48917 6.07113 9.46749C6.07113 9.46749 6.32323 9.42682 7.00041 9.42682C9.31922 9.42682 10.228 10.7631 10.228 12.7908C10.228 15.3211 8.72999 16.6168 6.81279 16.6168L6.80986 16.6139Z" fill="white"/>
<path d="M77.3121 13.9615C77.3766 13.1685 77.3971 12.4364 77.3971 12.0384C77.3971 8.92422 75.5825 6.52176 71.9357 6.52176C68.289 6.52176 66.0728 8.98813 66.0728 13.2295C66.0728 17.4708 68.4766 19.4375 72.2934 19.4375C75.2894 19.4375 76.8284 18.5399 76.8284 18.5399V16.0328C76.8284 16.0328 74.9728 16.8259 72.8621 16.8259C70.5316 16.8259 69.4088 15.6668 69.3238 13.9615H77.3121ZM69.3209 11.7043C69.3736 10.0514 70.3146 8.94455 71.8918 8.94455C73.2842 8.94455 74.2106 9.76087 74.2106 11.7043H69.3209Z" fill="white"/>
<path d="M58.6236 6.52176C54.8918 6.52176 52.5701 9.09271 52.5701 13C52.5701 16.9072 54.8889 19.4375 58.6236 19.4375C62.3583 19.4375 64.6977 16.8869 64.6977 13C64.6977 9.11304 62.3788 6.52176 58.6236 6.52176ZM58.6236 16.6777C56.7269 16.6777 55.8827 14.9841 55.8827 12.9796C55.8827 10.9752 56.7269 9.28154 58.6236 9.28154C60.5203 9.28154 61.3646 10.9752 61.3646 12.9796C61.3646 14.9841 60.5203 16.6777 58.6236 16.6777Z" fill="white"/>
<path d="M48.8235 12.602C50.2775 11.9949 50.8051 10.9287 50.8051 9.86548C50.8051 7.81744 49.2661 6.79196 45.9535 6.79196H40.5537V19.1645H45.6985C49.4098 19.1645 51.4149 17.9327 51.4149 15.3182C51.4149 13.918 50.3801 12.9158 48.8205 12.602H48.8235ZM43.6787 9.19442H45.9565C47.0323 9.19442 47.5395 9.54883 47.5395 10.3245C47.5395 11.1815 47.3489 11.684 45.8509 11.684H43.6787V9.19733V9.19442ZM46.0825 16.7591H43.6787V13.9383H46.0825C47.431 13.9383 48.0642 14.3973 48.0642 15.2746C48.0642 16.2159 47.39 16.7591 46.0825 16.7591Z" fill="white"/>
<path d="M38.9743 6.79196H35.3275L31.8683 11.87H31.1296V6.79196H28.0076V19.1645H31.1296V14.1272H31.8889L35.433 19.1645H39.2293L34.536 12.7938L38.9743 6.79196Z" fill="white"/>
<path d="M85.7635 6.52176C81.7268 6.52176 78.9214 8.99394 78.9214 13.3137C78.9214 16.8172 80.7682 18.8681 83.4359 19.2516C83.3128 20.3177 82.8525 22.4675 81.1698 23.9113L82.7089 26C89.3517 23.9519 92.5177 18.5457 92.5177 13.857C92.5177 9.7812 90.1285 6.52176 85.7606 6.52176H85.7635ZM85.2915 22.0666L85.1772 22.177L85.2446 22.0317C86.0244 20.3381 86.4055 18.4498 86.3498 16.5703C86.2706 16.579 86.0449 16.5964 85.5202 16.5964C83.3714 16.5964 82.3278 15.4838 82.3278 13.1975C82.3278 11.9919 82.6737 10.9926 83.3245 10.3128C83.9372 9.67662 84.7844 9.33964 85.7781 9.33964C86.7719 9.33964 87.6748 9.78411 88.267 10.6237C88.824 11.4196 89.1201 12.5265 89.1201 13.8279C89.1201 16.8317 87.8331 19.6031 85.2945 22.0666H85.2915Z" fill="white"/>
<path d="M105.381 9.36159C105.381 10.2563 104.575 10.695 103.622 10.695C102.532 10.695 101.831 10.1547 101.726 9.1931H102.414C102.485 9.73343 102.854 10.1489 103.622 10.1489C104.25 10.1489 104.657 9.83511 104.657 9.36449C104.657 8.82416 104.217 8.4436 103.106 8.4436V7.89746C104.25 7.89746 104.554 7.51399 104.554 7.1131C104.554 6.7122 104.285 6.32874 103.625 6.32874C102.895 6.32874 102.59 6.74416 102.523 7.28449H101.866C101.969 6.32002 102.605 5.78259 103.625 5.78259C104.575 5.78259 105.246 6.21835 105.246 7.04628C105.246 7.55757 104.93 7.94684 104.288 8.1531C104.991 8.3303 105.384 8.71377 105.384 9.37031L105.381 9.36159Z" fill="white"/>
<path d="M109.213 7.20901V10.6253H108.591V9.05371H106.8V10.6253H106.178V7.20901H106.8V8.54242H108.591V7.20901H109.213Z" fill="white"/>
<path d="M113.106 10.1808V10.6601C113.029 10.6804 112.933 10.6949 112.845 10.6949C112.405 10.6949 112.162 10.387 112.115 10.1081C111.839 10.4625 111.488 10.6949 110.983 10.6949C110.371 10.6949 109.937 10.3521 109.937 9.77405C109.937 9.05651 110.549 8.57137 111.722 8.57137C111.86 8.57137 111.942 8.57717 112.039 8.58589V8.4755C112.039 7.85963 111.748 7.65628 111.279 7.65628C110.922 7.65628 110.57 7.77248 110.28 7.92935V7.34835C110.561 7.23215 110.942 7.14209 111.35 7.14209C111.977 7.14209 112.625 7.35416 112.625 8.40578V9.75081C112.625 10.0181 112.707 10.1953 112.971 10.1953C113.018 10.1953 113.068 10.1895 113.109 10.1808H113.106ZM112.036 9.31215V9.01874C111.918 9.01293 111.822 9.00421 111.704 9.00421C110.863 9.00421 110.588 9.33829 110.588 9.70142C110.588 10.0442 110.816 10.2127 111.104 10.2127C111.523 10.2127 112.033 9.8641 112.033 9.31215H112.036Z" fill="white"/>
<path d="M117.034 10.1808V10.6252C116.902 10.6717 116.779 10.692 116.6 10.692C116.151 10.692 115.946 10.4044 115.841 9.90768L115.759 9.50388C115.697 9.20176 115.498 9.0536 114.826 9.0536H114.363V10.6252H113.742V7.20891H114.363V8.54231H114.826C115.53 8.54231 115.729 8.4203 115.77 8.12689L115.805 7.89449C115.882 7.38902 116.137 7.14209 116.647 7.14209C116.79 7.14209 116.922 7.17695 116.999 7.21181V7.65628C116.952 7.65047 116.922 7.64176 116.84 7.64176C116.626 7.64176 116.503 7.68824 116.442 7.99617L116.395 8.2431C116.333 8.54231 116.175 8.67885 115.864 8.78343C116.175 8.88511 116.36 9.14656 116.43 9.49516L116.497 9.84377C116.544 10.0907 116.656 10.1982 116.884 10.1982C116.96 10.1982 116.996 10.1924 117.037 10.1837L117.034 10.1808Z" fill="white"/>
<path d="M120.731 8.91706C120.731 10.0442 119.971 10.692 119.077 10.692C118.183 10.692 117.424 10.0442 117.424 8.91706C117.424 7.78991 118.183 7.14209 119.077 7.14209C119.971 7.14209 120.731 7.78991 120.731 8.91706ZM120.042 8.91706C120.042 8.06298 119.628 7.65338 119.077 7.65338C118.526 7.65338 118.113 8.06298 118.113 8.91706C118.113 9.77114 118.526 10.1808 119.077 10.1808C119.628 10.1808 120.042 9.77114 120.042 8.91706Z" fill="white"/>
<path d="M124.484 9.63471C124.484 10.2506 124 10.6253 123.138 10.6253H121.517V7.20901H123C123.862 7.20901 124.346 7.58376 124.346 8.17348C124.346 8.47561 124.202 8.71963 123.918 8.8765C124.29 9.02756 124.484 9.29192 124.484 9.63471ZM122.138 8.67896H122.93C123.446 8.67896 123.689 8.54823 123.689 8.17348C123.689 7.82488 123.449 7.68835 122.93 7.68835H122.138V8.67896ZM123.827 9.59985C123.827 9.25706 123.586 9.12052 123.068 9.12052H122.138V10.146H123.068C123.584 10.146 123.827 9.9746 123.827 9.59985Z" fill="white"/>
<path d="M128.033 9.56499C128.033 10.2477 127.549 10.6253 126.687 10.6253H125.274V7.20901H125.896V8.54242H126.687C127.549 8.54242 128.033 8.91717 128.033 9.5679V9.56499ZM127.379 9.56499C127.379 9.19024 127.139 9.05371 126.62 9.05371H125.896V10.114H126.62C127.136 10.114 127.379 9.97751 127.379 9.5679V9.56499ZM129.296 7.20901V10.6253H128.675V7.20901H129.296Z" fill="white"/>
<path d="M132.571 9.56488H133.157C133.055 10.3231 132.433 10.692 131.744 10.692C130.847 10.692 130.091 10.0442 130.091 8.91706C130.091 7.78991 130.856 7.14209 131.712 7.14209C132.512 7.14209 133.195 7.53717 133.195 8.91706H130.783C130.783 9.77114 131.196 10.1808 131.747 10.1808C132.099 10.1808 132.486 10.0239 132.574 9.56488H132.571ZM130.821 8.47259H132.468C132.442 7.97293 132.207 7.61851 131.709 7.61851C131.26 7.61851 130.938 7.91773 130.821 8.47259Z" fill="white"/>
<path d="M139.516 10.1808V10.6252C139.384 10.6717 139.261 10.692 139.082 10.692C138.633 10.692 138.428 10.4044 138.323 9.90768L138.241 9.50388C138.179 9.20176 137.98 9.0536 137.308 9.0536H136.845V10.6252H136.224V7.20891H136.845V8.54231H137.308C138.012 8.54231 138.211 8.4203 138.252 8.12689L138.287 7.89449C138.364 7.38902 138.619 7.14209 139.129 7.14209C139.272 7.14209 139.404 7.17695 139.481 7.21181V7.65628C139.434 7.65047 139.404 7.64176 139.322 7.64176C139.108 7.64176 138.985 7.68824 138.924 7.99617L138.877 8.2431C138.815 8.54231 138.657 8.67885 138.346 8.78343C138.657 8.88511 138.841 9.14656 138.912 9.49516L138.979 9.84377C139.026 10.0907 139.138 10.1982 139.366 10.1982C139.442 10.1982 139.478 10.1924 139.519 10.1837L139.516 10.1808Z" fill="white"/>
<path d="M143.244 7.20901V10.6253H142.623V9.05371H140.832V10.6253H140.21V7.20901H140.832V8.54242H142.623V7.20901H143.244Z" fill="white"/>
<path d="M147.325 7.20901V10.6253H146.704V8.16477L144.775 10.6253H144.291V7.20901H144.912V9.66957L146.841 7.20901H147.325Z" fill="white"/>
<path d="M153.191 10.1808V10.6253C153.059 10.6717 152.936 10.6921 152.757 10.6921C152.309 10.6921 152.104 10.4045 151.998 9.90771L151.916 9.50391C151.854 9.20179 151.655 9.05363 151.262 9.05363H150.884V10.6253H150.333V9.05363H149.955C149.562 9.05363 149.363 9.2047 149.301 9.50391L149.219 9.90771C149.116 10.4074 148.908 10.6921 148.46 10.6921C148.281 10.6921 148.158 10.6717 148.026 10.6253V10.1808C148.067 10.1866 148.102 10.1953 148.178 10.1953C148.407 10.1953 148.515 10.0849 148.565 9.8409L148.633 9.49229C148.703 9.14369 148.888 8.88514 149.198 8.78056C148.888 8.67888 148.729 8.54235 148.668 8.24023L148.621 7.9933C148.559 7.68537 148.433 7.63889 148.222 7.63889C148.14 7.63889 148.111 7.6447 148.064 7.65341V7.20894C148.14 7.17408 148.272 7.13922 148.416 7.13922C148.926 7.13922 149.181 7.38615 149.257 7.89162L149.292 8.12403C149.333 8.41743 149.533 8.53944 149.961 8.53944H150.339V7.20604H150.89V8.53944H151.268C151.696 8.53944 151.895 8.41743 151.936 8.12403L151.972 7.89162C152.048 7.38615 152.303 7.13922 152.813 7.13922C152.957 7.13922 153.089 7.17408 153.165 7.20894V7.65341C153.118 7.6476 153.089 7.63889 153.006 7.63889C152.792 7.63889 152.669 7.68537 152.608 7.9933L152.561 8.24023C152.499 8.53945 152.341 8.67598 152.03 8.78056C152.341 8.88224 152.526 9.14369 152.596 9.49229L152.664 9.8409C152.71 10.0878 152.822 10.1953 153.05 10.1953C153.127 10.1953 153.162 10.1895 153.203 10.1808H153.191Z" fill="white"/>
<path d="M156.929 7.20901V10.6253H156.307V9.05371H154.516V10.6253H153.895V7.20901H154.516V8.54242H156.307V7.20901H156.929Z" fill="white"/>
<path d="M160.669 9.56499C160.669 10.2477 160.186 10.6253 159.324 10.6253H157.911V7.20901H158.532V8.54242H159.324C160.186 8.54242 160.669 8.91717 160.669 9.5679V9.56499ZM160.016 9.56499C160.016 9.19024 159.775 9.05371 159.256 9.05371H158.532V10.114H159.256C159.772 10.114 160.016 9.97751 160.016 9.5679V9.56499ZM161.933 7.20901V10.6253H161.311V7.20901H161.933Z" fill="white"/>
<path d="M165.207 9.56488H165.793C165.691 10.3231 165.069 10.692 164.38 10.692C163.483 10.692 162.727 10.0442 162.727 8.91706C162.727 7.78991 163.492 7.14209 164.348 7.14209C165.148 7.14209 165.832 7.53717 165.832 8.91706H163.419C163.419 9.77114 163.832 10.1808 164.383 10.1808C164.735 10.1808 165.122 10.0239 165.21 9.56488H165.207ZM163.457 8.47259H165.104C165.078 7.97293 164.844 7.61851 164.345 7.61851C163.897 7.61851 163.574 7.91773 163.457 8.47259Z" fill="white"/>
<path d="M101.969 13.6727H105.898V18.4543H105.244V14.2188H102.626V18.4543H101.969V13.6727Z" fill="white"/>
<path d="M109.207 17.394H109.793C109.691 18.1522 109.069 18.5211 108.38 18.5211C107.483 18.5211 106.727 17.8733 106.727 16.7462C106.727 15.619 107.492 14.9712 108.348 14.9712C109.148 14.9712 109.832 15.3663 109.832 16.7462H107.419C107.419 17.6002 107.832 18.0099 108.383 18.0099C108.735 18.0099 109.122 17.853 109.21 17.394H109.207ZM107.457 16.3017H109.104C109.078 15.802 108.844 15.4476 108.345 15.4476C107.897 15.4476 107.574 15.7468 107.457 16.3017Z" fill="white"/>
<path d="M113.329 15.5492H112.121V18.4514H111.499V15.5492H110.294V15.038H113.329V15.5492Z" fill="white"/>
<path d="M116.184 17.394H116.77C116.668 18.1522 116.046 18.5211 115.357 18.5211C114.46 18.5211 113.704 17.8733 113.704 16.7462C113.704 15.619 114.469 14.9712 115.325 14.9712C116.126 14.9712 116.809 15.3663 116.809 16.7462H114.396C114.396 17.6002 114.809 18.0099 115.36 18.0099C115.712 18.0099 116.099 17.853 116.187 17.394H116.184ZM114.434 16.3017H116.082C116.055 15.802 115.821 15.4476 115.322 15.4476C114.874 15.4476 114.551 15.7468 114.434 16.3017Z" fill="white"/>
<path d="M120.833 16.7462C120.833 17.8733 120.109 18.5211 119.283 18.5211C118.819 18.5211 118.468 18.3294 118.213 17.9895V19.9562H117.591V15.038H118.213V15.5028C118.468 15.16 118.819 14.9712 119.283 14.9712C120.109 14.9712 120.833 15.619 120.833 16.7462ZM120.144 16.7462C120.144 15.8921 119.731 15.4825 119.215 15.4825C118.699 15.4825 118.215 15.8921 118.215 16.7462C118.215 17.6002 118.699 18.0099 119.215 18.0099C119.731 18.0099 120.144 17.6002 120.144 16.7462Z" fill="white"/>
<path d="M124.7 16.8827C124.7 17.8733 123.94 18.5211 123.046 18.5211C122.152 18.5211 121.46 17.8733 121.46 16.8827C121.46 14.6139 121.944 13.7947 123.501 13.6726C123.776 13.6523 123.888 13.6116 123.94 13.3996H124.424C124.424 14.0416 124.026 14.1636 123.568 14.1839C122.829 14.2188 122.058 14.5732 121.935 15.9996C122.205 15.5144 122.589 15.2414 123.149 15.2414C124.011 15.2414 124.7 15.8892 124.7 16.8798V16.8827ZM124.011 16.8827C124.011 16.1652 123.633 15.7555 123.082 15.7555C122.566 15.7555 122.082 16.1652 122.082 16.8827C122.088 17.6002 122.495 18.0098 123.046 18.0098C123.598 18.0098 124.011 17.6002 124.011 16.8827Z" fill="white"/>
<path d="M128.253 15.038L126.854 18.4543C126.468 19.3752 125.966 20.0259 125.075 20.0259V19.4449C125.641 19.4449 126.013 18.9859 126.28 18.3323L124.873 15.0409H125.597L126.611 17.6031L127.561 15.0409H128.25L128.253 15.038Z" fill="white"/>
<path d="M132.07 16.7462C132.07 17.8733 131.346 18.5211 130.52 18.5211C130.056 18.5211 129.705 18.3294 129.45 17.9895V19.9562H128.828V15.038H129.45V15.5028C129.705 15.16 130.056 14.9712 130.52 14.9712C131.346 14.9712 132.07 15.619 132.07 16.7462ZM131.381 16.7462C131.381 15.8921 130.968 15.4825 130.452 15.4825C129.936 15.4825 129.453 15.8921 129.453 16.7462C129.453 17.6002 129.936 18.0099 130.452 18.0099C130.968 18.0099 131.381 17.6002 131.381 16.7462Z" fill="white"/>
<path d="M135.341 15.5493H133.48V18.4514H132.858V15.0351H135.341V15.5464V15.5493Z" fill="white"/>
<path d="M138.707 18.0099V18.4892C138.631 18.5095 138.534 18.524 138.446 18.524C138.006 18.524 137.763 18.2161 137.716 17.9372C137.441 18.2916 137.089 18.524 136.585 18.524C135.972 18.524 135.538 18.1813 135.538 17.6032C135.538 16.8856 136.151 16.4005 137.323 16.4005C137.461 16.4005 137.543 16.4063 137.64 16.415V16.3046C137.64 15.6887 137.35 15.4854 136.881 15.4854C136.523 15.4854 136.171 15.6016 135.881 15.7585V15.1775C136.162 15.0612 136.544 14.9712 136.951 14.9712C137.578 14.9712 138.226 15.1833 138.226 16.2349V17.5799C138.226 17.8472 138.308 18.0244 138.572 18.0244C138.619 18.0244 138.669 18.0186 138.71 18.0099H138.707ZM137.637 17.1412V16.8478C137.52 16.842 137.423 16.8333 137.306 16.8333C136.464 16.8333 136.189 17.1674 136.189 17.5305C136.189 17.8733 136.418 18.0418 136.705 18.0418C137.124 18.0418 137.634 17.6932 137.634 17.1412H137.637Z" fill="white"/>
</svg>
