<svg width="24" height="38" viewBox="0 0 24 38" fill="none" xmlns="http://www.w3.org/2000/svg">
<path d="M6.75714 34.561C8.41119 32.8799 11.7249 28.5869 12.6186 22.9853C8.52222 24.2771 5.66367 23.2786 3.51559 21.5185C1.36752 19.7585 -0.120036 17.3554 0.00762765 13.2034C0.135291 9.05151 3.6155 2.5303 11.5972 2.62056C21.2108 2.73338 23.3811 11.2346 23.2479 15.7251C23.087 21.3267 21.1498 25.332 17.9693 29.7321C14.1672 35.001 9.94876 37.5 9.94876 37.5L6.75714 34.561Z" fill="#E44256"/>
<path d="M8.86129 20.06C8.55196 20.06 8.21062 20.0333 7.83729 19.98C7.47462 19.9373 7.17596 19.884 6.94129 19.82V18.636C7.38929 18.7747 7.86929 18.844 8.38129 18.844C9.12796 18.844 9.77329 18.7213 10.3173 18.476C10.872 18.2307 11.2933 17.9 11.5813 17.484C11.8693 17.068 12.0133 16.6093 12.0133 16.108C12.0133 15.4253 11.8106 14.8973 11.4053 14.524C11 14.1507 10.3973 13.9533 9.59729 13.932L8.63729 14.172L8.30129 13.196C8.73862 13.1213 9.17062 12.988 9.59729 12.796C10.216 12.5187 10.696 12.172 11.0373 11.756C11.3786 11.3293 11.5493 10.876 11.5493 10.396C11.5493 9.86267 11.384 9.47333 11.0533 9.228C10.7333 8.98267 10.3226 8.86 9.82129 8.86C9.35196 8.86 8.90929 8.94 8.49329 9.1C8.08796 9.26 7.74129 9.45733 7.45329 9.692L6.89329 8.716C7.20262 8.41733 7.70396 8.124 8.39729 7.836C9.10129 7.548 9.81596 7.404 10.5413 7.404C11.5546 7.404 12.376 7.62267 13.0053 8.06C13.6453 8.48667 13.9653 9.13733 13.9653 10.012C13.9653 10.78 13.6666 11.4573 13.0693 12.044C12.472 12.6307 11.7413 13.0787 10.8773 13.388C10.984 13.3773 11.144 13.372 11.3573 13.372C12.3066 13.372 13.0746 13.612 13.6613 14.092C14.2586 14.572 14.5573 15.212 14.5573 16.012C14.568 16.78 14.3386 17.468 13.8693 18.076C13.4106 18.6947 12.7493 19.18 11.8853 19.532C11.0213 19.884 10.0133 20.06 8.86129 20.06Z" fill="white"/>
</svg>
