<svg width="24" height="36" viewBox="0 0 24 36" fill="none" xmlns="http://www.w3.org/2000/svg">
<path d="M6.75714 33.061C8.41119 31.3799 11.7249 27.0869 12.6186 21.4853C8.52222 22.7771 5.66367 21.7785 3.51559 20.0185C1.36752 18.2585 -0.120036 15.8553 0.00762765 11.7034C0.135291 7.5515 3.6155 1.03028 11.5972 1.12054C21.2108 1.23336 23.3811 9.73463 23.2479 14.225C23.087 19.8267 21.1498 23.832 17.9693 28.2321C14.1672 33.501 9.94876 36 9.94876 36L6.75714 33.061Z" fill="#E44256"/>
<path d="M9.87248 9.16C9.69114 9.224 9.36581 9.30933 8.89648 9.416C8.42714 9.512 8.05914 9.576 7.79248 9.608L7.61648 8.488C8.19248 8.37067 8.78981 8.16267 9.40848 7.864C10.0378 7.55467 10.5498 7.23467 10.9445 6.904H10.9605L12.2245 7.08V15.88L14.0485 16.056V17H7.95248V16.056L9.87248 15.896V9.16Z" fill="white"/>
</svg>
