<svg width="24" height="36" viewBox="0 0 24 36" fill="none" xmlns="http://www.w3.org/2000/svg">
<path d="M6.75714 33.061C8.41119 31.3799 11.7249 27.0869 12.6186 21.4853C8.52222 22.7771 5.66367 21.7786 3.51559 20.0186C1.36752 18.2585 -0.120036 15.8554 0.00762765 11.7034C0.135291 7.55153 3.6155 1.03031 11.5972 1.12057C21.2108 1.23339 23.3811 9.73466 23.2479 14.2251C23.087 19.8267 21.1498 23.832 17.9693 28.2321C14.1672 33.501 9.94876 36 9.94876 36L6.75714 33.061Z" fill="#E44256"/>
<path d="M6.45279 16.136C7.93546 15.2614 9.15146 14.296 10.1008 13.24C11.0501 12.184 11.5248 11.1654 11.5248 10.184C11.5248 9.66136 11.3595 9.24536 11.0288 8.93603C10.7088 8.61603 10.2555 8.45603 9.66879 8.45603C9.11412 8.45603 8.64479 8.5627 8.26079 8.77603C7.88746 8.9787 7.51946 9.24536 7.15679 9.57603L6.54879 8.69603C6.76212 8.42936 7.06612 8.15736 7.46079 7.88003C7.86612 7.6027 8.33546 7.37336 8.86879 7.19203C9.40212 7.00003 9.94079 6.90403 10.4848 6.90403C11.2635 6.90403 11.9141 7.03736 12.4368 7.30403C12.9701 7.5707 13.3648 7.9227 13.6208 8.36003C13.8768 8.79736 14.0048 9.2827 14.0048 9.81603C14.0048 10.84 13.5141 11.8694 12.5328 12.904C11.5515 13.9387 10.3035 14.888 8.78879 15.752L13.4288 15.32L14.0368 13.976L15.0448 14.184L14.5808 17H6.78879L6.45279 16.136Z" fill="white"/>
</svg>
